<svg width="1020" height="630" viewBox="0 0 1020 630" fill="none" xmlns="http://www.w3.org/2000/svg">
<g clip-path="url(#clip0)">
<g opacity="0.96">
<path opacity="0.96" d="M937.547 630.001L936.697 588.495L948.597 630.001H949.447L936.697 586.271H935.847L936.697 630.001H937.547Z" fill="#4277A9" fill-opacity="0.25"/>
<path opacity="0.96" d="M923.097 630.001L935.847 587.753L936.697 630.001H937.547L936.697 586.271H935.847L923.097 630.001Z" fill="#4277A9" fill-opacity="0.25"/>
<path opacity="0.96" d="M762.45 630L793.9 619.624L790.5 630H791.35L793.9 619.624V618.882L760.75 630H762.45Z" fill="#4277A9" fill-opacity="0.25"/>
<path opacity="0.96" d="M801.548 630L794.748 619.624L819.399 630H820.249L793.048 618.882L801.548 630Z" fill="#4277A9" fill-opacity="0.25"/>
<path opacity="0.96" d="M413.947 630.001L416.497 625.554L415.647 630.001H416.497L417.347 624.072H416.497L413.097 630.001H413.947Z" fill="#4277A9" fill-opacity="0.25"/>
<path opacity="0.96" d="M416.495 630.001L417.345 624.813L425.845 630.001H426.695L417.345 624.072H416.495L415.645 630.001H416.495Z" fill="#4277A9" fill-opacity="0.25"/>
<path opacity="0.96" d="M793.895 619.625L619.645 559.59L736.945 483.248L793.895 619.625ZM621.345 559.59L793.895 618.884L737.795 483.99L621.345 559.59Z" fill="#4277A9" fill-opacity="0.25"/>
<path opacity="0.96" d="M793.902 619.625L736.952 483.248L876.352 479.543L793.902 619.625ZM737.802 483.99L793.902 618.884L875.502 479.543L737.802 483.99Z" fill="#4277A9" fill-opacity="0.25"/>
<path opacity="0.96" d="M383.348 630.001L416.498 624.813L413.098 630.001H413.948L417.348 624.072L380.798 630.001H383.348Z" fill="#4277A9" fill-opacity="0.25"/>
<path opacity="0.96" d="M650.25 630.001L621.35 559.589L793.05 619.625L760.75 630.001H762.45L794.75 619.625L620.5 558.848L649.4 630.001H650.25Z" fill="#4277A9" fill-opacity="0.25"/>
<path opacity="0.96" d="M426.7 630.001L418.2 624.813L438.6 630.001H440.3L416.5 624.072L425.85 630.001H426.7Z" fill="#4277A9" fill-opacity="0.25"/>
<path opacity="0.96" d="M549.952 630.001L566.102 531.424L620.502 559.589L566.102 630.001H566.952L620.502 559.589L566.102 530.683L549.952 630.001Z" fill="#4277A9" fill-opacity="0.25"/>
<path opacity="0.96" d="M736.952 483.988L850.852 403.941L876.352 479.541L736.952 483.988ZM850.002 403.941L737.802 483.247L875.502 479.541L850.002 403.941Z" fill="#4277A9" fill-opacity="0.25"/>
<path opacity="0.96" d="M245.648 630.001L269.448 529.201L337.448 630.001H338.298L269.448 527.719L244.798 630.001H245.648Z" fill="#4277A9" fill-opacity="0.25"/>
<path opacity="0.96" d="M417.347 624.071L432.647 478.801L492.147 517.342L417.347 624.071ZM432.647 479.542L417.347 623.33L491.297 517.342L432.647 479.542Z" fill="#4277A9" fill-opacity="0.25"/>
<path opacity="0.96" d="M417.347 624.812L268.597 528.46L432.647 478.801L417.347 624.812ZM269.447 528.46L416.497 624.071L431.797 479.542L269.447 528.46Z" fill="#4277A9" fill-opacity="0.25"/>
<path opacity="0.96" d="M621.347 559.59L566.097 530.684L574.597 446.19H575.447L621.347 559.59ZM566.097 530.684L619.647 558.848L574.597 447.672L566.097 530.684Z" fill="#4277A9" fill-opacity="0.25"/>
<path opacity="0.96" d="M268.597 529.201L305.147 458.789L432.647 479.542L268.597 529.201ZM305.997 458.789L269.447 527.719L431.797 478.801L305.997 458.789Z" fill="#4277A9" fill-opacity="0.25"/>
<path opacity="0.96" d="M700.397 457.307L574.597 346.872L660.447 316.484L700.397 457.307ZM575.447 346.872L699.547 455.825L660.447 317.225L575.447 346.872Z" fill="#4277A9" fill-opacity="0.25"/>
<path opacity="0.96" d="M699.547 457.307L659.597 316.483L818.547 300.918V301.659L699.547 457.307ZM660.447 316.483L699.547 455.824L817.697 300.918L660.447 316.483Z" fill="#4277A9" fill-opacity="0.25"/>
<path opacity="0.96" d="M181.048 606.283L130.048 452.859L270.298 527.718L181.048 606.283ZM130.048 454.342L181.048 605.542L268.598 528.459L130.048 454.342Z" fill="#4277A9" fill-opacity="0.25"/>
<path opacity="0.96" d="M432.649 480.284L397.799 409.872L447.099 394.307L432.649 480.284ZM397.799 409.872L431.799 478.06L445.399 394.307L397.799 409.872Z" fill="#4277A9" fill-opacity="0.25"/>
<path opacity="0.96" d="M130.05 454.342L114.75 396.53L196.35 332.789L130.05 454.342ZM115.6 397.272L130.05 453.601L196.35 334.272L115.6 397.272Z" fill="#4277A9" fill-opacity="0.25"/>
<path opacity="0.96" d="M659.597 317.224L737.797 192.706L818.547 300.918L659.597 317.224ZM737.797 193.447L660.447 315.741L817.697 300.176L737.797 193.447Z" fill="#4277A9" fill-opacity="0.25"/>
<path opacity="0.96" d="M306.001 458.789L129.202 453.601L196.352 332.789L306.001 458.789ZM130.052 453.601L305.151 458.048L197.202 333.53L130.052 453.601Z" fill="#4277A9" fill-opacity="0.25"/>
<path opacity="0.96" d="M660.447 317.224L544.847 260.894L679.997 198.636V199.377L660.447 317.224ZM546.547 260.894L660.447 316.483L679.147 199.377L546.547 260.894Z" fill="#4277A9" fill-opacity="0.25"/>
<g opacity="0.96">
<path opacity="0.96" d="M1020 628.518L936.697 499.553L1020 518.824V518.083L935.847 498.812L1020 629.259V628.518Z" fill="#4277A9" fill-opacity="0.25"/>
</g>
<g opacity="0.96">
<path opacity="0.96" d="M1020 475.837L936.697 498.813L1020 383.931V383.19L935.847 499.554L1020 475.837Z" fill="#4277A9" fill-opacity="0.25"/>
</g>
<g opacity="0.96">
<path opacity="0.96" d="M675.75 588.494L715.7 400.235L937.55 499.553L675.75 588.494ZM715.7 400.977L676.6 587.753L935.85 499.553L715.7 400.977Z" fill="#4277A9" fill-opacity="0.25"/>
</g>
<g opacity="0.96">
<path opacity="0.96" d="M936.697 499.553L714.847 400.977L862.747 272.753L936.697 499.553ZM715.697 400.977L935.847 499.553L862.747 273.495L715.697 400.977Z" fill="#4277A9" fill-opacity="0.25"/>
</g>
<g opacity="0.96">
<path opacity="0.96" d="M771.8 630L677.45 587.753L935.85 499.553L861.9 630L936.7 499.553V498.812L676.6 587.753H675.75L770.1 630H771.8Z" fill="#4277A9" fill-opacity="0.25"/>
</g>
<g opacity="0.96">
<path opacity="0.96" d="M603.497 630L583.947 605.542L676.597 587.753L684.247 630L676.597 587.753L583.947 604.8H583.097L603.497 630Z" fill="#4277A9" fill-opacity="0.25"/>
</g>
<g opacity="0.96">
<path opacity="0.96" d="M676.597 587.754L642.597 404.683L715.697 400.977L676.597 587.754ZM643.447 404.683L676.597 586.271L715.697 400.977L643.447 404.683Z" fill="#4277A9" fill-opacity="0.25"/>
</g>
<g opacity="0.96">
<path opacity="0.96" d="M493.845 505.483L377.395 395.047H378.245L644.295 403.942L493.845 505.483ZM378.245 395.789L493.845 504.742L642.595 404.683L378.245 395.789Z" fill="#4277A9" fill-opacity="0.25"/>
</g>
<g opacity="0.96">
<path opacity="0.96" d="M644.295 404.684L377.395 395.79L436.045 286.837L644.295 404.684ZM378.245 395.048L642.595 403.943L436.045 286.837L378.245 395.048Z" fill="#4277A9" fill-opacity="0.25"/>
</g>
<g opacity="0.96">
<path opacity="0.96" d="M643.448 405.424L436.048 286.836L591.598 128.966L643.448 405.424ZM436.048 286.836L642.598 404.683L590.748 129.707L436.048 286.836Z" fill="#4277A9" fill-opacity="0.25"/>
</g>
<g opacity="0.96">
<path opacity="0.96" d="M292.395 562.553L378.245 395.047L494.695 504.742L292.395 562.553ZM378.245 395.789L293.245 561.071L492.995 504.742L378.245 395.789Z" fill="#4277A9" fill-opacity="0.25"/>
</g>
<g opacity="0.96">
<path opacity="0.96" d="M278.802 630L257.552 621.847L292.402 562.553L346.802 630H347.652L292.402 561.812L257.552 621.847L256.702 622.589L277.952 630H278.802Z" fill="#4277A9" fill-opacity="0.25"/>
</g>
<g opacity="0.96">
<path opacity="0.96" d="M293.245 562.554L135.145 494.366H135.995L379.095 395.789V396.53L293.245 562.554ZM135.995 494.366L293.245 561.813L378.245 396.53L135.995 494.366Z" fill="#4277A9" fill-opacity="0.25"/>
</g>
<g opacity="0.96">
<path opacity="0.96" d="M436.05 286.836L318.75 140.824L376.55 82.2713V83.0124L436.05 286.836ZM319.6 140.824L435.2 285.354L376.55 83.0124L319.6 140.824Z" fill="#4277A9" fill-opacity="0.25"/>
</g>
<g opacity="0.96">
<path opacity="0.96" d="M244.798 327.601L318.748 140.083L436.048 286.095L244.798 327.601ZM319.598 141.566L245.648 327.601L436.048 286.836L319.598 141.566Z" fill="#4277A9" fill-opacity="0.25"/>
</g>
<path opacity="0.96" d="M939.245 589.236C937.545 590.719 934.995 590.719 933.295 589.236C931.595 587.754 931.595 585.53 933.295 584.048C934.995 582.566 937.545 582.566 939.245 584.048C940.945 585.53 940.945 587.754 939.245 589.236Z" fill="#4277A9" fill-opacity="0.25"/>
<path opacity="0.96" d="M938.401 588.495C937.551 589.237 935.001 589.237 934.151 588.495C933.301 587.754 933.301 585.531 934.151 584.79C935.001 584.048 937.551 584.048 938.401 584.79C939.251 585.531 939.251 587.013 938.401 588.495Z" fill="#4277A9" fill-opacity="0.25"/>
<path opacity="0.96" d="M799.001 624.071C795.601 626.294 791.351 626.294 787.951 623.329C785.401 620.365 785.401 616.659 788.801 613.694C792.201 611.471 796.451 611.471 799.851 614.435C802.401 617.4 802.401 621.847 799.001 624.071Z" fill="#4277A9" fill-opacity="0.25"/>
<path opacity="0.96" d="M796.447 621.847C794.747 623.33 792.197 623.33 790.497 621.847C788.797 620.365 788.797 618.142 790.497 616.659C792.197 615.177 794.747 615.177 796.447 616.659C798.997 618.142 798.997 621.106 796.447 621.847Z" fill="#4277A9" fill-opacity="0.25"/>
<path opacity="0.96" d="M796.449 621.847C794.749 623.33 793.049 622.588 791.349 621.847C789.649 620.365 790.499 618.883 791.349 617.4C793.049 615.918 794.749 616.659 796.449 617.4C798.149 618.883 798.149 620.365 796.449 621.847Z" fill="#4277A9" fill-opacity="0.25"/>
<path opacity="0.96" d="M419.047 626.294C418.197 627.036 416.497 627.036 414.797 626.294C413.947 625.553 413.947 624.071 414.797 622.589C415.647 621.847 417.347 621.847 419.047 622.589C419.897 623.33 419.897 624.812 419.047 626.294Z" fill="#4277A9" fill-opacity="0.25"/>
<path opacity="0.96" d="M795.595 621.106C794.745 621.848 792.195 621.848 791.345 621.106C790.495 620.365 790.495 618.142 791.345 617.401C792.195 616.66 794.745 616.66 795.595 617.401C797.295 618.883 797.295 620.365 795.595 621.106Z" fill="#4277A9" fill-opacity="0.25"/>
<path opacity="0.96" d="M623.05 561.813C621.35 563.295 619.65 562.554 617.95 561.813C617.1 560.331 617.1 558.848 617.95 557.366C619.65 555.883 621.35 556.625 623.05 557.366C624.75 558.848 623.9 560.331 623.05 561.813Z" fill="#4277A9" fill-opacity="0.25"/>
<path opacity="0.96" d="M795.6 621.107C794.75 621.849 793.05 621.849 792.2 621.107C791.35 620.366 791.35 618.884 792.2 618.143C793.05 617.402 794.75 617.402 795.6 618.143C796.45 618.884 796.45 620.366 795.6 621.107Z" fill="#4277A9" fill-opacity="0.25"/>
<path opacity="0.96" d="M739.498 485.471C738.648 486.212 736.098 486.212 735.248 485.471C734.398 484.73 734.398 482.506 735.248 481.765C736.098 481.024 738.648 481.024 739.498 481.765C740.348 482.506 740.348 484.73 739.498 485.471Z" fill="#4277A9" fill-opacity="0.25"/>
<path opacity="0.96" d="M419.898 627.035C418.198 628.518 415.648 628.518 413.948 627.035C412.248 625.553 412.248 623.329 413.948 621.847C415.648 620.365 418.198 620.365 419.898 621.847C421.598 623.329 421.598 625.553 419.898 627.035Z" fill="#4277A9" fill-opacity="0.25"/>
<path opacity="0.96" d="M795.6 621.107C794.75 621.849 793.05 621.849 792.2 621.107C791.35 620.366 791.35 618.884 792.2 618.143C793.05 617.402 794.75 617.402 795.6 618.143C796.45 618.884 796.45 620.366 795.6 621.107Z" fill="#4277A9" fill-opacity="0.25"/>
<path opacity="0.96" d="M417.349 624.812C416.499 625.554 415.65 624.812 415.65 624.812C414.8 624.071 415.65 623.33 415.65 623.33C416.499 622.589 417.349 623.33 417.349 623.33C418.199 624.071 418.199 624.812 417.349 624.812Z" fill="#4277A9" fill-opacity="0.25"/>
<path opacity="0.96" d="M493.85 518.825C493 519.566 491.3 519.566 490.45 518.825C489.6 518.083 489.6 516.601 490.45 515.86C491.3 515.119 493 515.119 493.85 515.86C494.7 516.601 494.7 518.083 493.85 518.825Z" fill="#4277A9" fill-opacity="0.25"/>
<path opacity="0.96" d="M566.951 532.165C566.101 532.906 565.251 532.906 564.402 532.165C563.552 531.424 563.552 530.683 564.402 529.942C565.251 529.201 566.101 529.201 566.951 529.942C567.801 530.683 567.801 531.424 566.951 532.165Z" fill="#4277A9" fill-opacity="0.25"/>
<path opacity="0.96" d="M738.645 484.73C737.795 485.472 736.945 485.472 736.095 484.73C735.245 483.989 735.245 483.248 736.095 482.507C736.945 481.766 737.795 481.766 738.645 482.507C739.495 483.248 739.495 483.989 738.645 484.73Z" fill="#4277A9" fill-opacity="0.25"/>
<path opacity="0.96" d="M184.45 609.247C182.75 610.729 179.35 610.729 177.65 609.247C175.95 607.765 175.95 604.8 177.65 603.318C179.35 601.835 182.75 601.835 184.45 603.318C186.15 604.8 186.15 607.765 184.45 609.247Z" fill="#4277A9" fill-opacity="0.25"/>
<path opacity="0.96" d="M575.449 447.671C574.599 448.412 573.749 448.412 573.749 447.671C572.899 446.929 572.899 446.188 573.749 446.188C574.599 445.447 575.449 445.447 575.449 446.188C576.299 446.188 576.299 446.929 575.449 447.671Z" fill="#4277A9" fill-opacity="0.25"/>
<path opacity="0.96" d="M740.35 486.212C738.65 487.694 736.1 487.694 734.4 486.212C732.7 484.729 732.7 482.506 734.4 481.024C736.1 479.541 738.65 479.541 740.35 481.024C742.05 482.506 742.05 484.729 740.35 486.212Z" fill="#4277A9" fill-opacity="0.25"/>
<path opacity="0.96" d="M413.945 630.001H419.895C420.745 630.001 420.745 629.259 421.595 629.259C424.995 627.036 424.995 622.589 422.445 620.365C419.895 617.4 414.795 617.4 412.245 619.624C408.845 621.848 408.845 626.295 411.395 628.518C412.245 629.259 413.095 630.001 413.945 630.001Z" fill="#4277A9" fill-opacity="0.25"/>
<path opacity="0.96" d="M438.6 484.73C435.2 487.695 430.1 486.954 426.7 483.989C423.3 481.024 424.15 476.577 427.55 473.613C430.95 470.648 436.05 471.389 439.45 474.354C442 477.319 442 481.766 438.6 484.73Z" fill="#4277A9" fill-opacity="0.25"/>
<path opacity="0.96" d="M493.845 519.566C492.995 520.307 490.445 520.307 489.595 519.566C488.745 518.824 488.745 516.601 489.595 515.86C490.445 515.119 492.995 515.119 493.845 515.86C494.695 516.601 494.695 518.083 493.845 519.566Z" fill="#4277A9" fill-opacity="0.25"/>
<path opacity="0.96" d="M271.998 531.423C270.298 532.906 266.898 532.906 265.198 531.423C263.498 529.941 263.498 526.977 265.198 525.494C266.898 524.012 270.298 524.012 271.998 525.494C274.548 527.718 273.698 529.941 271.998 531.423Z" fill="#4277A9" fill-opacity="0.25"/>
<path opacity="0.96" d="M274.547 533.648C271.147 535.872 266.897 535.872 264.347 532.907C261.797 529.942 261.797 526.236 265.197 524.013C268.597 521.789 272.847 521.789 275.397 524.754C277.097 526.978 277.097 530.683 274.547 533.648Z" fill="#4277A9" fill-opacity="0.25"/>
<path opacity="0.96" d="M569.499 534.389C567.799 535.872 564.399 535.872 562.699 534.389C560.999 532.907 560.999 529.942 562.699 528.46C564.399 526.978 567.799 526.978 569.499 528.46C571.198 529.942 571.198 532.907 569.499 534.389Z" fill="#4277A9" fill-opacity="0.25"/>
<path opacity="0.96" d="M307.7 460.272C306.85 461.013 304.3 461.013 303.45 460.272C302.6 459.53 302.6 457.307 303.45 456.566C304.3 455.825 306.85 455.825 307.7 456.566C309.4 458.048 309.4 459.53 307.7 460.272Z" fill="#4277A9" fill-opacity="0.25"/>
<path opacity="0.96" d="M436.047 482.507C434.347 483.989 430.947 483.989 429.247 482.507C427.547 481.025 427.547 478.06 429.247 476.578C430.947 475.095 434.347 475.095 436.047 476.578C437.747 478.06 437.747 481.025 436.047 482.507Z" fill="#4277A9" fill-opacity="0.25"/>
<path opacity="0.96" d="M119 609.248C118.15 609.989 116.45 609.989 116.45 609.248C115.6 608.507 115.6 607.025 116.45 607.025C117.3 606.284 119 606.284 119 607.025C119.85 607.766 119.85 608.507 119 609.248Z" fill="#4277A9" fill-opacity="0.25"/>
<path opacity="0.96" d="M575.451 447.672C574.601 448.413 573.751 448.413 572.901 447.672C572.051 446.931 572.051 446.189 572.901 445.448C573.751 444.707 574.601 444.707 575.451 445.448C576.301 446.189 576.301 446.931 575.451 447.672Z" fill="#4277A9" fill-opacity="0.25"/>
<path opacity="0.96" d="M702.102 458.789C700.402 460.271 698.702 459.53 697.002 458.789C695.302 457.306 696.152 455.824 697.002 454.341C698.702 452.859 700.402 453.6 702.102 454.341C703.802 455.824 703.802 458.048 702.102 458.789Z" fill="#4277A9" fill-opacity="0.25"/>
<path opacity="0.96" d="M434.35 481.024C433.5 481.765 431.8 481.765 430.95 481.024C430.1 480.283 430.1 478.8 430.95 478.059C431.8 477.318 433.5 477.318 434.35 478.059C435.2 478.8 435.2 480.283 434.35 481.024Z" fill="#4277A9" fill-opacity="0.25"/>
<path opacity="0.96" d="M577.149 449.153C575.449 450.635 572.899 450.635 571.199 449.153C569.499 447.671 569.499 445.447 571.199 443.965C572.899 442.482 575.449 442.482 577.149 443.965C579.699 445.447 579.699 447.671 577.149 449.153Z" fill="#4277A9" fill-opacity="0.25"/>
<path opacity="0.96" d="M183.6 609.248C181.9 610.73 179.35 610.73 177.65 609.248C175.95 607.765 175.95 605.542 177.65 604.06C179.35 602.577 181.9 602.577 183.6 604.06C186.15 605.542 186.15 607.765 183.6 609.248Z" fill="#4277A9" fill-opacity="0.25"/>
<path opacity="0.96" d="M134.298 457.306C131.748 459.53 128.348 458.789 125.798 457.306C123.248 455.083 124.098 452.118 125.798 449.895C128.348 447.671 131.748 448.412 134.298 449.895C136.848 452.118 135.998 455.824 134.298 457.306Z" fill="#4277A9" fill-opacity="0.25"/>
<path opacity="0.96" d="M120.7 610.731C119 612.213 115.6 612.213 113.9 610.731C112.2 609.248 112.2 606.284 113.9 604.801C115.6 603.319 119 603.319 120.7 604.801C123.25 607.025 122.4 609.248 120.7 610.731Z" fill="#4277A9" fill-opacity="0.25"/>
<path opacity="0.96" d="M307.7 460.272C306.85 461.013 305.15 461.013 303.45 460.272C302.6 459.53 302.6 458.048 303.45 456.566C304.3 455.825 306 455.825 307.7 456.566C308.55 458.048 308.55 459.53 307.7 460.272Z" fill="#4277A9" fill-opacity="0.25"/>
<path opacity="0.96" d="M132.602 455.825C130.902 457.307 129.202 456.566 127.502 455.825C125.802 454.342 126.652 452.86 127.502 451.377C129.202 449.895 130.902 450.636 132.602 451.377C134.302 452.86 134.302 455.083 132.602 455.825Z" fill="#4277A9" fill-opacity="0.25"/>
<path opacity="0.96" d="M310.245 463.235C307.695 465.459 303.445 465.459 300.895 462.494C298.345 460.271 298.345 456.565 301.745 454.341C304.295 452.118 308.545 452.118 311.095 455.083C313.645 458.047 312.795 461.012 310.245 463.235Z" fill="#4277A9" fill-opacity="0.25"/>
<path opacity="0.96" d="M577.149 449.153C575.449 450.635 572.899 450.635 571.199 449.153C569.499 447.671 569.499 445.447 571.199 443.965C572.899 442.482 575.449 442.482 577.149 443.965C579.699 445.447 578.849 447.671 577.149 449.153Z" fill="#4277A9" fill-opacity="0.25"/>
<path opacity="0.96" d="M435.199 481.766C433.499 483.248 431.799 482.507 430.099 481.766C428.399 480.283 429.249 478.801 430.099 477.319C431.799 475.836 433.499 476.577 435.199 477.319C436.899 478.06 436.899 480.283 435.199 481.766Z" fill="#4277A9" fill-opacity="0.25"/>
<path opacity="0.96" d="M448.796 396.53C447.096 398.013 444.546 397.272 443.696 396.53C441.996 395.048 442.846 392.824 443.696 392.083C445.396 390.601 447.946 391.342 448.796 392.083C450.496 393.566 450.496 395.789 448.796 396.53Z" fill="#4277A9" fill-opacity="0.25"/>
<path opacity="0.96" d="M199.745 335.754C198.045 337.237 195.495 337.237 193.795 335.754C192.095 334.272 192.095 332.048 193.795 330.566C195.495 329.084 198.045 329.084 199.745 330.566C201.445 332.048 201.445 334.272 199.745 335.754Z" fill="#4277A9" fill-opacity="0.25"/>
<path opacity="0.96" d="M821.1 303.883C819.4 305.366 816.85 305.366 815.15 303.883C813.45 302.401 813.45 300.177 815.15 298.695C816.85 297.213 819.4 297.213 821.1 298.695C822.8 300.177 822.8 302.401 821.1 303.883Z" fill="#4277A9" fill-opacity="0.25"/>
<path opacity="0.96" d="M662.147 318.707C660.447 319.448 658.747 319.448 657.047 318.707C656.197 317.225 656.197 315.743 657.047 314.26C658.747 313.519 660.447 313.519 662.147 314.26C663.847 315.743 663.847 317.966 662.147 318.707Z" fill="#4277A9" fill-opacity="0.25"/>
<path opacity="0.96" d="M198.897 335.013C197.197 335.754 195.497 335.754 193.797 335.013C192.947 333.53 192.947 332.048 193.797 330.566C195.497 329.825 197.197 329.825 198.897 330.566C200.597 332.048 200.597 334.272 198.897 335.013Z" fill="#4277A9" fill-opacity="0.25"/>
<path opacity="0.96" d="M682.551 201.601C680.852 203.083 678.302 203.083 676.602 201.601C674.902 200.118 674.902 197.895 676.602 196.412C678.302 194.93 680.852 194.93 682.551 196.412C684.251 197.895 684.251 200.118 682.551 201.601Z" fill="#4277A9" fill-opacity="0.25"/>
<path opacity="0.96" d="M740.345 195.672C739.495 196.413 736.945 196.413 736.095 195.672C735.245 194.931 735.245 192.707 736.095 191.966C736.945 191.225 739.495 191.225 740.345 191.966C741.195 192.707 741.195 194.19 740.345 195.672Z" fill="#4277A9" fill-opacity="0.25"/>
<path opacity="0.96" d="M406.298 299.436C405.448 300.177 404.598 300.177 403.748 299.436C402.898 298.695 402.898 297.954 403.748 297.213C404.598 296.472 405.448 296.472 406.298 297.213C407.148 297.954 407.148 299.436 406.298 299.436Z" fill="#4277A9" fill-opacity="0.25"/>
<path opacity="0.96" d="M577.999 349.835C576.299 351.318 572.899 351.318 571.199 349.835C569.499 348.353 569.499 345.388 571.199 343.906C572.899 342.424 576.299 342.424 577.999 343.906C580.549 345.388 580.549 348.353 577.999 349.835Z" fill="#4277A9" fill-opacity="0.25"/>
<path opacity="0.96" d="M448.797 396.53C447.947 397.271 445.397 397.271 444.547 396.53C443.697 395.789 443.697 393.565 444.547 392.824C445.397 392.083 447.947 392.083 448.797 392.824C449.647 393.565 449.647 395.047 448.797 396.53Z" fill="#4277A9" fill-opacity="0.25"/>
<path opacity="0.96" d="M132.6 456.565C130.9 458.047 128.35 458.047 126.65 456.565C124.95 455.082 124.95 452.859 126.65 451.376C128.35 449.894 130.9 449.894 132.6 451.376C135.15 452.859 135.15 455.082 132.6 456.565Z" fill="#4277A9" fill-opacity="0.25"/>
<path opacity="0.96" d="M40.7985 472.13C39.0985 473.613 36.5485 473.613 35.6985 472.13C33.9985 469.907 33.9985 468.424 35.6985 466.942C37.3985 465.46 39.9485 465.46 40.7985 466.942C42.4985 468.424 42.4985 470.648 40.7985 472.13Z" fill="#4277A9" fill-opacity="0.25"/>
<path opacity="0.96" d="M118.149 399.494C116.449 400.977 113.899 400.977 112.199 399.494C110.499 398.012 110.499 395.789 112.199 394.306C113.899 392.824 116.449 392.824 118.149 394.306C119.849 395.789 119.849 398.012 118.149 399.494Z" fill="#4277A9" fill-opacity="0.25"/>
<path opacity="0.96" d="M549.948 264.601C547.398 266.824 543.148 266.083 541.448 263.859C538.898 261.636 539.748 257.93 542.298 256.448C544.848 254.224 549.098 254.965 550.798 257.189C552.498 259.412 552.498 263.118 549.948 264.601Z" fill="#4277A9" fill-opacity="0.25"/>
<path opacity="0.96" d="M940.947 503.26C938.397 505.484 934.147 505.484 931.597 502.519C929.047 500.295 929.047 496.589 932.447 494.366C934.997 492.142 939.247 492.142 941.797 495.107C943.497 498.072 943.497 501.036 940.947 503.26Z" fill="#4277A9" fill-opacity="0.25"/>
<path opacity="0.96" d="M938.397 501.777C936.697 502.519 934.997 502.519 933.297 501.777C932.447 500.295 932.447 498.813 933.297 497.331C934.997 496.589 936.697 496.589 938.397 497.331C940.097 498.813 940.097 500.295 938.397 501.777Z" fill="#4277A9" fill-opacity="0.25"/>
<path opacity="0.96" d="M940.098 502.518C937.548 504 934.148 504 932.448 502.518C930.748 500.294 930.748 497.329 932.448 495.847C934.998 494.365 938.398 494.365 940.098 495.847C942.648 498.071 942.648 501.035 940.098 502.518Z" fill="#4277A9" fill-opacity="0.25"/>
<path opacity="0.96" d="M679.148 590.718C677.449 592.201 674.899 592.201 673.199 590.718C671.499 589.236 671.499 587.013 673.199 585.53C674.899 584.048 677.449 584.048 679.148 585.53C680.848 587.013 680.848 589.236 679.148 590.718Z" fill="#4277A9" fill-opacity="0.25"/>
<path opacity="0.96" d="M940.098 503.259C937.548 504.742 934.148 504.742 932.448 503.259C930.748 501.036 930.748 498.071 932.448 496.589C934.998 495.106 938.398 495.106 940.098 496.589C942.648 498.071 942.648 501.036 940.098 503.259Z" fill="#4277A9" fill-opacity="0.25"/>
<path opacity="0.96" d="M716.549 401.719C715.699 402.46 714.849 402.46 713.999 401.719C713.149 400.978 713.149 400.237 713.999 399.496C714.849 398.754 715.699 398.754 716.549 399.496C717.399 400.237 717.399 400.978 716.549 401.719Z" fill="#4277A9" fill-opacity="0.25"/>
<path opacity="0.96" d="M680.001 591.459C677.451 592.941 674.051 592.941 672.351 591.459C670.651 589.235 670.651 586.271 672.351 584.788C674.901 583.306 678.301 583.306 680.001 584.788C682.551 586.271 682.551 589.976 680.001 591.459Z" fill="#4277A9" fill-opacity="0.25"/>
<path opacity="0.96" d="M584.802 606.284C583.952 607.025 582.252 607.025 581.402 606.284C580.552 605.543 580.552 604.06 581.402 603.319C582.252 602.578 583.952 602.578 584.802 603.319C586.502 604.801 585.652 606.284 584.802 606.284Z" fill="#4277A9" fill-opacity="0.25"/>
<path opacity="0.96" d="M585.65 607.766C583.95 609.248 582.25 608.507 580.55 607.766C578.85 606.283 579.7 604.801 580.55 603.319C582.25 601.836 583.95 602.577 585.65 603.319C587.35 604.801 587.35 606.283 585.65 607.766Z" fill="#4277A9" fill-opacity="0.25"/>
<path opacity="0.96" d="M678.301 589.236C677.451 589.977 675.752 589.977 674.902 589.236C674.052 588.495 674.052 587.013 674.902 586.271C675.752 585.53 677.451 585.53 678.301 586.271C679.151 587.013 679.151 588.495 678.301 589.236Z" fill="#4277A9" fill-opacity="0.25"/>
<path opacity="0.96" d="M716.549 401.719C715.699 402.46 714.849 402.46 713.999 401.719C713.149 400.978 713.149 400.237 713.999 399.496C714.849 398.754 715.699 398.754 716.549 399.496C717.399 400.237 717.399 400.978 716.549 401.719Z" fill="#4277A9" fill-opacity="0.25"/>
<path opacity="0.96" d="M747.996 214.942C747.146 215.683 745.445 215.683 744.595 214.942C743.745 214.201 743.745 212.719 744.595 211.978C745.445 211.236 747.146 211.236 747.996 211.978C748.846 212.719 748.846 213.46 747.996 214.942Z" fill="#4277A9" fill-opacity="0.25"/>
<path opacity="0.96" d="M679.998 590.718C678.298 592.2 674.899 592.2 673.199 590.718C671.499 589.235 671.499 586.271 673.199 584.788C674.899 583.306 678.298 583.306 679.998 584.788C681.698 587.012 681.698 589.235 679.998 590.718Z" fill="#4277A9" fill-opacity="0.25"/>
<path opacity="0.96" d="M719.947 404.683C717.397 406.907 713.147 406.907 710.597 403.942C708.047 401.718 708.047 398.013 711.447 395.789C713.997 393.566 718.247 393.566 720.797 396.53C722.497 399.495 722.497 402.46 719.947 404.683Z" fill="#4277A9" fill-opacity="0.25"/>
<path opacity="0.96" d="M679.999 591.46C677.449 593.684 674.049 592.942 671.499 591.46C668.949 589.237 669.799 586.272 671.499 584.048C674.049 581.825 677.449 582.566 679.999 584.048C683.399 586.272 682.549 589.978 679.999 591.46Z" fill="#4277A9" fill-opacity="0.25"/>
<path opacity="0.96" d="M584.799 606.283C583.949 607.024 583.099 607.024 582.249 606.283C581.399 605.542 581.399 604.8 582.249 604.059C583.099 603.318 583.949 603.318 584.799 604.059C585.649 604.8 585.649 605.542 584.799 606.283Z" fill="#4277A9" fill-opacity="0.25"/>
<path opacity="0.96" d="M749.697 215.682C747.997 217.165 745.447 217.165 743.747 215.682C742.047 214.2 742.047 211.976 743.747 210.494C745.447 209.012 747.997 209.012 749.697 210.494C751.397 211.976 751.397 214.2 749.697 215.682Z" fill="#4277A9" fill-opacity="0.25"/>
<path opacity="0.96" d="M585.652 607.025C584.802 607.766 582.252 607.766 581.402 607.025C580.552 606.284 580.552 604.06 581.402 603.319C582.252 602.578 584.802 602.578 585.652 603.319C587.352 604.801 587.352 606.284 585.652 607.025Z" fill="#4277A9" fill-opacity="0.25"/>
<path opacity="0.96" d="M645.149 406.166C644.299 406.907 642.599 406.907 641.749 406.166C640.899 405.425 640.899 403.942 641.749 403.201C642.599 402.46 644.299 402.46 645.149 403.201C645.999 403.942 645.999 405.425 645.149 406.166Z" fill="#4277A9" fill-opacity="0.25"/>
<path opacity="0.96" d="M495.551 506.965C494.701 507.706 493.002 507.706 492.152 506.965C491.302 506.224 491.302 504.742 492.152 504C493.002 503.259 494.701 503.259 495.551 504C496.401 504.742 496.401 505.483 495.551 506.965Z" fill="#4277A9" fill-opacity="0.25"/>
<path opacity="0.96" d="M380.802 398.012C379.102 399.495 376.552 399.495 374.852 398.012C373.152 396.53 373.152 394.307 374.852 392.824C376.552 391.342 379.102 391.342 380.802 392.824C382.502 394.307 382.502 396.53 380.802 398.012Z" fill="#4277A9" fill-opacity="0.25"/>
<path opacity="0.96" d="M645.149 406.166C644.299 406.907 642.599 406.907 641.749 406.166C640.899 405.425 640.899 403.942 641.749 403.201C642.599 402.46 644.299 402.46 645.149 403.201C645.999 403.942 645.999 405.425 645.149 406.166Z" fill="#4277A9" fill-opacity="0.25"/>
<path opacity="0.96" d="M437.748 288.319C436.048 289.06 434.348 289.06 433.498 288.319C432.648 286.837 432.648 285.354 433.498 284.613C435.198 283.872 436.898 283.872 437.748 284.613C439.448 286.095 439.448 287.578 437.748 288.319Z" fill="#4277A9" fill-opacity="0.25"/>
<path opacity="0.96" d="M437.748 288.319C436.898 289.06 435.198 289.06 433.498 288.319C432.648 287.578 432.648 286.095 433.498 284.613C434.348 283.872 436.048 283.872 437.748 284.613C439.448 286.095 439.448 287.578 437.748 288.319Z" fill="#4277A9" fill-opacity="0.25"/>
<path opacity="0.96" d="M593.297 131.188C591.597 131.929 589.897 131.929 589.047 131.188C588.197 129.706 588.197 128.224 589.047 127.482C590.747 126.741 592.447 126.741 593.297 127.482C594.997 128.224 594.997 129.706 593.297 131.188Z" fill="#4277A9" fill-opacity="0.25"/>
<path opacity="0.96" d="M294.097 563.294C293.247 564.035 292.397 564.035 291.547 563.294C290.697 562.553 290.697 561.812 291.547 561.071C292.397 560.329 293.247 560.329 294.097 561.071C294.947 561.812 294.947 562.553 294.097 563.294Z" fill="#4277A9" fill-opacity="0.25"/>
<path opacity="0.96" d="M260.95 625.554C259.25 627.037 255.85 627.037 254.15 625.554C252.45 624.072 252.45 621.107 254.15 619.625C255.85 618.143 259.25 618.143 260.95 619.625C262.65 621.107 262.65 623.331 260.95 625.554Z" fill="#4277A9" fill-opacity="0.25"/>
<path opacity="0.96" d="M296.647 565.518C294.097 567 290.697 567 288.997 565.518C287.297 563.294 287.297 560.33 288.997 558.847C291.547 557.365 294.947 557.365 296.647 558.847C298.347 560.33 298.347 563.294 296.647 565.518Z" fill="#4277A9" fill-opacity="0.25"/>
<path opacity="0.96" d="M259.248 624.071C258.398 624.812 255.848 624.812 254.998 624.071C254.148 623.329 254.148 621.106 254.998 620.365C255.848 619.623 258.398 619.623 259.248 620.365C260.949 621.106 260.949 623.329 259.248 624.071Z" fill="#4277A9" fill-opacity="0.25"/>
<path opacity="0.96" d="M294.1 563.295C293.25 564.036 291.55 564.036 290.7 563.295C289.85 562.554 289.85 561.072 290.7 560.331C291.55 559.59 293.25 559.59 294.1 560.331C295.8 561.072 295.8 562.554 294.1 563.295Z" fill="#4277A9" fill-opacity="0.25"/>
<path opacity="0.96" d="M595.001 131.929C593.301 133.412 589.901 133.412 587.351 131.929C585.651 129.706 585.651 127.482 587.351 125.259C589.901 123.777 592.451 123.777 595.001 125.259C597.551 127.482 596.701 130.447 595.001 131.929Z" fill="#4277A9" fill-opacity="0.25"/>
<path opacity="0.96" d="M437.748 288.319C436.898 289.06 434.348 289.06 433.498 288.319C432.648 287.578 432.648 285.354 433.498 284.613C434.348 283.872 436.898 283.872 437.748 284.613C439.448 286.095 439.448 287.578 437.748 288.319Z" fill="#4277A9" fill-opacity="0.25"/>
<path opacity="0.96" d="M322.145 143.047C320.445 144.53 317.895 144.53 317.045 143.047C315.345 141.565 315.345 139.342 317.045 138.6C318.745 137.118 321.295 137.118 322.145 138.6C322.995 140.083 322.995 142.306 322.145 143.047Z" fill="#4277A9" fill-opacity="0.25"/>
<path opacity="0.96" d="M249.052 331.307C246.502 333.53 243.102 332.789 240.552 330.565C238.002 328.342 238.852 325.377 241.402 323.154C243.952 320.93 247.352 321.671 249.902 323.895C251.602 326.118 251.602 329.083 249.052 331.307Z" fill="#4277A9" fill-opacity="0.25"/>
<path opacity="0.96" d="M379.95 397.272C378.25 398.013 376.55 398.013 375.7 397.272C374.85 395.789 374.85 394.307 375.7 393.566C377.4 392.825 379.1 392.825 379.95 393.566C381.65 395.048 381.65 396.53 379.95 397.272Z" fill="#4277A9" fill-opacity="0.25"/>
<path opacity="0.96" d="M260.102 624.813C258.402 626.295 255.852 625.554 255.002 624.813C253.302 623.331 254.152 621.107 255.002 620.366C256.702 618.884 259.252 619.625 260.102 620.366C261.802 621.107 260.952 623.331 260.102 624.813Z" fill="#4277A9" fill-opacity="0.25"/>
<path opacity="0.96" d="M436.895 287.577C436.045 288.318 435.195 288.318 434.345 287.577C433.495 286.836 433.495 286.094 434.345 285.353C435.195 284.612 436.045 284.612 436.895 285.353C437.745 286.094 437.745 286.836 436.895 287.577Z" fill="#4277A9" fill-opacity="0.25"/>
</g>
<path d="M1020 601.836L912.048 589.977L736.098 456.566L1020 586.272L734.398 455.083L733.548 455.825L912.048 589.977L1020 601.836Z" fill="#4277A9" fill-opacity="0.25"/>
<path d="M1020 601.835L912.052 589.976L911.202 589.235L912.052 630H912.902L912.052 589.976L1020 601.835Z" fill="#4277A9" fill-opacity="0.25"/>
<path d="M912.053 589.978L801.553 544.766L734.403 455.083H735.253L912.053 589.978ZM801.553 544.025L909.503 588.495L735.253 456.566L801.553 544.025Z" fill="#4277A9" fill-opacity="0.25"/>
<path d="M785.402 630L772.652 619.623L912.052 589.976V630H912.902L912.052 589.976V589.235L770.952 619.623L783.702 630H785.402Z" fill="#4277A9" fill-opacity="0.25"/>
<path d="M769.253 630L771.803 620.365L783.703 630H785.403L771.803 618.882L768.403 630H769.253Z" fill="#4277A9" fill-opacity="0.25"/>
<path d="M770.952 619.625L800.702 544.025L912.052 589.978H911.201L770.952 619.625ZM801.552 544.766L771.802 618.884L910.351 589.978L801.552 544.766Z" fill="#4277A9" fill-opacity="0.25"/>
<path d="M671.502 630L648.552 601.094L771.802 619.623L768.402 630H769.252L771.802 619.623V618.882L647.702 601.094V600.353L670.652 630H671.502Z" fill="#4277A9" fill-opacity="0.25"/>
<path d="M634.951 630L647.701 601.835L670.652 630L648.552 601.094L647.701 600.353L634.951 630Z" fill="#4277A9" fill-opacity="0.25"/>
<path d="M771.797 619.625L646.847 601.095L802.397 544.025L771.797 619.625ZM649.397 601.095L771.797 619.625L801.547 545.507L649.397 601.095Z" fill="#4277A9" fill-opacity="0.25"/>
<path d="M647.702 601.836L734.402 455.083V455.825L802.402 545.507L647.702 601.836ZM734.402 455.825L648.552 600.354L800.702 544.025L734.402 455.825Z" fill="#4277A9" fill-opacity="0.25"/>
<path d="M442.003 630.001L452.203 531.424L646.853 601.095L579.703 630.001H581.403L648.553 601.095L452.203 531.424L451.353 530.683L441.153 630.001H442.003Z" fill="#4277A9" fill-opacity="0.25"/>
<path d="M648.547 601.835L451.347 531.423L566.097 412.835L648.547 601.835ZM452.197 531.423L647.697 600.353L566.947 413.576L452.197 531.423Z" fill="#4277A9" fill-opacity="0.25"/>
<path d="M581.402 630L647.702 601.835L634.952 630L648.552 601.094V600.353L579.702 630H581.402Z" fill="#4277A9" fill-opacity="0.25"/>
<path d="M451.347 532.166V531.424L461.547 369.848H462.397L566.947 413.578L451.347 532.166ZM462.397 370.589L452.197 530.683L566.097 413.578L462.397 370.589Z" fill="#4277A9" fill-opacity="0.25"/>
<path d="M277.947 630L390.147 539.576L416.497 630L390.997 538.835L277.097 630H277.947Z" fill="#4277A9" fill-opacity="0.25"/>
<path d="M416.503 630.001L391.003 539.577L451.353 531.424L441.153 630.001H442.003L452.203 530.683L391.003 538.836H390.153L416.503 630.001Z" fill="#4277A9" fill-opacity="0.25"/>
<path d="M390.153 539.577L462.403 369.848H463.253L453.053 531.424L390.153 539.577ZM461.553 371.33L391.003 538.836L451.353 530.683L461.553 371.33Z" fill="#4277A9" fill-opacity="0.25"/>
<path d="M267.748 630L165.748 548.47L390.148 539.576L277.098 630H277.948L390.998 539.576L391.848 538.835L164.898 548.47H164.048L266.898 630H267.748Z" fill="#4277A9" fill-opacity="0.25"/>
<path d="M164.048 548.471L204.848 452.118L391.848 539.576H390.998L164.048 548.471ZM204.848 452.859L164.898 548.471L389.298 539.576L204.848 452.859Z" fill="#4277A9" fill-opacity="0.25"/>
<path d="M391 539.576L204 452.118L323 307.588L391 539.576ZM204.85 452.118L390.15 538.835L323 309.071L204.85 452.118Z" fill="#4277A9" fill-opacity="0.25"/>
<path d="M132.6 630.001L164.9 549.213L266.9 630.001H267.75L164.9 548.472L164.05 547.73L131.75 630.001H132.6Z" fill="#4277A9" fill-opacity="0.25"/>
<path d="M2.55154 630.001L164.052 549.213L131.752 630.001H132.602L164.902 547.73L1.70154 630.001H2.55154Z" fill="#4277A9" fill-opacity="0.25"/>
<path d="M204.847 452.86L136.847 282.389L323.847 308.33L204.847 452.86ZM137.697 283.13L204.847 452.118L322.997 308.33L137.697 283.13Z" fill="#4277A9" fill-opacity="0.25"/>
<path d="M204.853 452.118L92.6532 335.753L137.703 281.647V282.388L204.853 452.118ZM93.5032 335.753L204.003 450.635L137.703 283.129L93.5032 335.753Z" fill="#4277A9" fill-opacity="0.25"/>
<path d="M45.9 498.812L0 584.789V585.53L45.9 499.553L164.05 548.471L1.7 630H2.55L164.9 548.471L45.9 498.812Z" fill="#4277A9" fill-opacity="0.25"/>
<path d="M164.898 549.212L45.0483 498.812L205.698 452.118V452.859L164.898 549.212ZM46.7483 498.812L164.048 548.471L203.998 452.859L46.7483 498.812Z" fill="#4277A9" fill-opacity="0.25"/>
<path d="M45.903 499.553L93.503 335.011V335.753L205.703 452.117H204.853L45.903 499.553ZM93.503 336.494L46.753 498.811L204.003 452.117L93.503 336.494Z" fill="#4277A9" fill-opacity="0.25"/>
<path d="M1020 67.4474L915.448 133.412L566.098 143.789L1020 35.5768L563.548 143.789V144.53L915.448 133.412H916.298L1020 68.1886V67.4474Z" fill="#4277A9" fill-opacity="0.25"/>
<path d="M1020 226.801L916.302 133.412L1020 68.1889V67.4477L915.452 133.412L1020 227.542V226.801Z" fill="#4277A9" fill-opacity="0.25"/>
<path d="M742.048 182.33L563.548 144.53V143.789L916.298 132.672V133.413L742.048 182.33ZM566.098 144.53L742.048 181.589L913.748 133.413L566.098 144.53Z" fill="#4277A9" fill-opacity="0.25"/>
<path d="M1020 499.553L881.447 427.658L1020 338.717L880.597 427.658L1020 500.294V499.553Z" fill="#4277A9" fill-opacity="0.25"/>
<path d="M1020 292.025L797.302 290.542L915.452 134.154L1020 227.542V226.801L916.302 133.413L915.452 132.672L796.452 290.542L1020 292.025Z" fill="#4277A9" fill-opacity="0.25"/>
<path d="M1020 338.717L880.602 427.658L797.302 290.541L1020 292.023L797.302 290.541H796.452L880.602 427.658V428.4L1020 338.717Z" fill="#4277A9" fill-opacity="0.25"/>
<path d="M1020 530.683L930.75 630.001H931.6L1020 532.165V530.683Z" fill="#4277A9" fill-opacity="0.25"/>
<path d="M796.451 291.282L741.201 182.329L916.301 133.412L915.451 134.153L796.451 291.282ZM742.051 182.329L796.451 289.8L914.601 134.153L742.051 182.329Z" fill="#4277A9" fill-opacity="0.25"/>
<path d="M1020 500.294V499.553L881.447 427.658H880.597L927.347 630H928.197L881.447 428.4L1020 500.294Z" fill="#4277A9" fill-opacity="0.25"/>
<path d="M1020 530.681L930.75 629.999H931.6L1020 532.164V530.681Z" fill="#4277A9" fill-opacity="0.25"/>
<path d="M913.751 630.001L737.801 596.648L880.601 428.401L927.351 630.001H928.201L881.451 427.66V426.918L736.951 596.648V597.389L910.351 630.001H913.751Z" fill="#4277A9" fill-opacity="0.25"/>
<path d="M881.447 428.4L638.347 380.964H639.197L796.447 290.541L881.447 428.4ZM640.047 380.223L879.747 427.658L796.447 291.282L640.047 380.223Z" fill="#4277A9" fill-opacity="0.25"/>
<path d="M736.952 597.389L639.202 380.224H640.052L881.452 427.659L736.952 597.389ZM640.052 380.965L737.802 596.647L880.602 428.4L640.052 380.965Z" fill="#4277A9" fill-opacity="0.25"/>
<path d="M736.947 630L737.797 597.388L910.347 630H913.747L737.797 596.647H736.947L736.097 630H736.947Z" fill="#4277A9" fill-opacity="0.25"/>
<path d="M639.202 380.965L640.052 380.224L742.902 181.588L798.152 290.541L639.202 380.965ZM742.052 183.071L640.052 379.482L796.452 290.541L742.052 183.071Z" fill="#4277A9" fill-opacity="0.25"/>
<path d="M639.202 380.966V380.225L562.702 143.789L742.052 181.589L639.202 380.966ZM563.552 144.53L639.202 379.483L741.202 182.33L563.552 144.53Z" fill="#4277A9" fill-opacity="0.25"/>
<path d="M477.699 630L344.249 478.8L639.199 380.965L530.399 630H531.249L640.049 380.224L343.399 478.059H342.549L476.849 630H477.699Z" fill="#4277A9" fill-opacity="0.25"/>
<path d="M343.403 478.8L330.653 246.812H331.503L641.753 380.224L343.403 478.8ZM330.653 247.553L343.403 478.059L638.353 380.224L330.653 247.553Z" fill="#4277A9" fill-opacity="0.25"/>
<path d="M531.253 630L640.053 380.964L736.953 596.647L636.653 630H638.353L737.803 597.388L639.203 379.482L530.403 630H531.253Z" fill="#4277A9" fill-opacity="0.25"/>
<path d="M638.353 630L736.953 597.388L736.103 630H736.953L737.803 596.647L636.653 630H638.353Z" fill="#4277A9" fill-opacity="0.25"/>
<path d="M343.403 479.542L164.903 292.024H165.753L330.653 246.812L343.403 479.542ZM166.603 292.765L343.403 478.059L330.653 247.553L166.603 292.765Z" fill="#4277A9" fill-opacity="0.25"/>
<path d="M277.947 630L285.597 542.541L440.297 630H441.997L285.597 541.8V541.059L277.097 630H277.947Z" fill="#4277A9" fill-opacity="0.25"/>
<path d="M441.997 630L286.447 541.8L343.397 478.8L476.847 630H477.697L343.397 478.059L285.597 541.8L440.297 630H441.997Z" fill="#4277A9" fill-opacity="0.25"/>
<path d="M285.6 542.541L165.75 292.765H166.6L344.25 479.541L285.6 542.541ZM166.6 294.247L285.6 541.8L342.55 478.8L166.6 294.247Z" fill="#4277A9" fill-opacity="0.25"/>
<path d="M187.003 630L285.603 542.541L277.103 630H277.953L285.603 541.8L286.453 541.059L186.153 630H187.003Z" fill="#4277A9" fill-opacity="0.25"/>
<path d="M0 607.024V607.765L284.75 542.541L186.15 630H187L285.6 541.8L286.45 541.059L0 607.024Z" fill="#4277A9" fill-opacity="0.25"/>
<path d="M0 380.966V381.707L284.75 541.801L0 607.025V607.766L285.6 541.801H286.45L0 380.966Z" fill="#4277A9" fill-opacity="0.25"/>
<path d="M914.598 589.976C914.598 591.458 912.898 592.941 911.198 592.941C909.498 592.941 907.798 591.458 907.798 589.976C907.798 588.494 909.498 587.011 911.198 587.011C913.748 587.011 914.598 588.494 914.598 589.976Z" fill="#4277A9" fill-opacity="0.25"/>
<path d="M734.398 459.53C737.215 459.53 739.498 457.539 739.498 455.083C739.498 452.627 737.215 450.636 734.398 450.636C731.582 450.636 729.298 452.627 729.298 455.083C729.298 457.539 731.582 459.53 734.398 459.53Z" fill="#4277A9" fill-opacity="0.25"/>
<path d="M918.85 589.977C918.85 592.942 916.3 595.906 912.05 595.906C908.65 595.906 905.25 593.683 905.25 589.977C905.25 587.012 907.8 584.047 912.05 584.047C915.45 584.047 918.85 587.012 918.85 589.977Z" fill="#4277A9" fill-opacity="0.25"/>
<path d="M918.85 589.977C918.85 592.942 915.45 595.906 912.05 595.906C908.65 595.906 905.25 592.942 905.25 589.977C905.25 587.012 908.65 584.047 912.05 584.047C915.45 584.047 918.85 586.271 918.85 589.977Z" fill="#4277A9" fill-opacity="0.25"/>
<path d="M806.651 544.764C806.651 546.988 804.102 549.211 801.552 549.211C799.002 549.211 796.452 546.988 796.452 544.764C796.452 542.54 799.002 540.317 801.552 540.317C804.102 540.317 806.651 542.54 806.651 544.764Z" fill="#4277A9" fill-opacity="0.25"/>
<path d="M737.8 455.082C737.8 456.565 736.1 458.047 734.4 458.047C732.7 458.047 731 456.565 731 455.082C731 453.6 732.7 452.118 734.4 452.118C736.1 452.118 737.8 453.6 737.8 455.082Z" fill="#4277A9" fill-opacity="0.25"/>
<path d="M774.35 619.624C774.35 621.106 773.5 621.847 771.8 621.847C770.1 621.847 769.25 621.106 769.25 619.624C769.25 618.142 770.1 617.401 771.8 617.401C773.5 617.401 774.35 618.142 774.35 619.624Z" fill="#4277A9" fill-opacity="0.25"/>
<path d="M917.152 589.976C917.152 592.2 914.602 594.424 912.052 594.424C909.502 594.424 906.952 592.2 906.952 589.976C906.952 587.753 909.502 585.529 912.052 585.529C914.602 585.529 917.152 587.753 917.152 589.976Z" fill="#4277A9" fill-opacity="0.25"/>
<path d="M781.152 619.623C781.152 624.07 776.902 627.776 771.802 627.776C766.701 627.776 762.451 624.07 762.451 619.623C762.451 615.176 766.701 611.471 771.802 611.471C776.902 611.471 781.152 615.176 781.152 619.623Z" fill="#4277A9" fill-opacity="0.25"/>
<path d="M918.003 589.977C918.003 592.942 915.453 595.906 911.203 595.906C907.803 595.906 904.403 593.683 904.403 589.977C904.403 587.012 906.953 584.047 911.203 584.047C915.453 584.047 918.003 587.012 918.003 589.977Z" fill="#4277A9" fill-opacity="0.25"/>
<path d="M776.902 619.623C776.902 621.847 774.352 624.07 771.802 624.07C769.252 624.07 766.702 621.847 766.702 619.623C766.702 617.4 769.252 615.176 771.802 615.176C774.352 615.176 776.902 616.659 776.902 619.623Z" fill="#4277A9" fill-opacity="0.25"/>
<path d="M807.497 544.765C807.497 547.73 804.947 549.953 801.547 549.953C798.147 549.953 795.597 547.73 795.597 544.765C795.597 541.8 798.147 539.577 801.547 539.577C804.947 539.577 807.497 541.8 807.497 544.765Z" fill="#4277A9" fill-opacity="0.25"/>
<path d="M657.901 601.094C657.901 605.541 653.651 609.247 648.551 609.247C643.451 609.247 639.201 605.541 639.201 601.094C639.201 596.647 643.451 592.941 648.551 592.941C653.651 592.941 657.901 596.647 657.901 601.094Z" fill="#4277A9" fill-opacity="0.25"/>
<path d="M777.747 619.623C777.747 622.588 775.197 624.811 771.797 624.811C768.397 624.811 765.847 622.588 765.847 619.623C765.847 616.658 768.397 614.435 771.797 614.435C775.197 614.435 777.747 616.658 777.747 619.623Z" fill="#4277A9" fill-opacity="0.25"/>
<path d="M653.652 601.094C653.652 603.318 651.102 605.541 648.552 605.541C646.002 605.541 643.452 603.318 643.452 601.094C643.452 598.871 646.002 596.647 648.552 596.647C651.102 596.647 653.652 598.129 653.652 601.094Z" fill="#4277A9" fill-opacity="0.25"/>
<path d="M779.453 619.623C779.453 623.329 776.053 626.294 771.803 626.294C767.553 626.294 764.153 623.329 764.153 619.623C764.153 615.917 767.553 612.953 771.803 612.953C776.053 612.953 779.453 615.917 779.453 619.623Z" fill="#4277A9" fill-opacity="0.25"/>
<path d="M653.65 601.093C653.65 604.058 651.1 606.282 647.7 606.282C644.3 606.282 641.75 604.058 641.75 601.093C641.75 598.129 644.3 595.905 647.7 595.905C651.1 595.905 653.65 598.129 653.65 601.093Z" fill="#4277A9" fill-opacity="0.25"/>
<path d="M803.247 544.764C803.247 545.506 802.397 546.247 801.547 546.247C800.697 546.247 799.847 545.506 799.847 544.764C799.847 544.023 800.697 543.282 801.547 543.282C802.397 542.541 803.247 543.282 803.247 544.764Z" fill="#4277A9" fill-opacity="0.25"/>
<path d="M804.1 544.764C804.1 546.247 803.25 546.988 801.55 546.988C799.85 546.988 799 546.247 799 544.764C799 543.282 799.85 542.541 801.55 542.541C803.25 542.541 804.1 543.282 804.1 544.764Z" fill="#4277A9" fill-opacity="0.25"/>
<path d="M647.702 604.799C650.049 604.799 651.952 603.14 651.952 601.093C651.952 599.046 650.049 597.387 647.702 597.387C645.354 597.387 643.452 599.046 643.452 601.093C643.452 603.14 645.354 604.799 647.702 604.799Z" fill="#4277A9" fill-opacity="0.25"/>
<path d="M737.798 455.082C737.798 457.305 736.098 458.788 733.548 458.788C730.998 458.788 729.298 457.305 729.298 455.082C729.298 452.858 730.998 451.376 733.548 451.376C736.098 451.376 737.798 453.599 737.798 455.082Z" fill="#4277A9" fill-opacity="0.25"/>
<path d="M651.952 601.093C651.952 603.317 650.252 604.799 647.702 604.799C645.152 604.799 643.452 603.317 643.452 601.093C643.452 598.87 645.152 597.387 647.702 597.387C650.252 597.387 651.952 598.87 651.952 601.093Z" fill="#4277A9" fill-opacity="0.25"/>
<path d="M454.753 531.423C454.753 532.905 453.053 533.646 452.203 533.646C450.503 533.646 449.653 532.164 449.653 531.423C449.653 530.682 451.353 529.199 452.203 529.199C453.903 528.458 454.753 529.94 454.753 531.423Z" fill="#4277A9" fill-opacity="0.25"/>
<path d="M651.098 601.094C651.098 602.576 649.398 604.059 647.698 604.059C645.998 604.059 644.298 602.576 644.298 601.094C644.298 599.611 645.998 598.129 647.698 598.129C649.398 598.129 651.098 599.611 651.098 601.094Z" fill="#4277A9" fill-opacity="0.25"/>
<path d="M452.201 535.129C454.549 535.129 456.451 533.47 456.451 531.423C456.451 529.376 454.549 527.717 452.201 527.717C449.854 527.717 447.951 529.376 447.951 531.423C447.951 533.47 449.854 535.129 452.201 535.129Z" fill="#4277A9" fill-opacity="0.25"/>
<path d="M570.348 412.836C570.348 414.318 568.648 415.8 566.948 415.8C565.248 415.8 563.548 414.318 563.548 412.836C563.548 411.353 565.248 409.871 566.948 409.871C568.648 409.871 570.348 411.353 570.348 412.836Z" fill="#4277A9" fill-opacity="0.25"/>
<path d="M651.1 601.094C651.1 602.577 649.4 603.318 648.55 603.318C646.85 603.318 646 601.836 646 601.094C646 599.612 647.7 598.871 648.55 598.871C649.4 598.13 651.1 599.612 651.1 601.094Z" fill="#4277A9" fill-opacity="0.25"/>
<path d="M573.751 412.836C573.751 416.541 570.351 419.506 566.101 419.506C561.851 419.506 558.451 416.541 558.451 412.836C558.451 409.13 561.851 406.165 566.101 406.165C570.351 406.165 573.751 409.13 573.751 412.836Z" fill="#4277A9" fill-opacity="0.25"/>
<path d="M454.753 531.423C454.753 532.905 453.903 533.646 452.203 533.646C450.503 533.646 449.653 532.905 449.653 531.423C449.653 529.941 450.503 529.199 452.203 529.199C453.053 529.199 454.753 529.941 454.753 531.423Z" fill="#4277A9" fill-opacity="0.25"/>
<path d="M464.947 369.846C464.947 371.328 464.097 372.07 462.397 372.07C460.697 372.07 459.847 371.328 459.847 369.846C459.847 368.364 460.697 367.622 462.397 367.622C464.097 367.622 464.947 368.364 464.947 369.846Z" fill="#4277A9" fill-opacity="0.25"/>
<path d="M397.802 539.577C397.802 543.283 394.402 545.506 391.002 545.506C386.752 545.506 384.202 542.542 384.202 539.577C384.202 535.871 387.602 533.647 391.002 533.647C394.402 532.906 397.802 535.871 397.802 539.577Z" fill="#4277A9" fill-opacity="0.25"/>
<path d="M399.5 539.577C399.5 544.024 396.1 546.989 391 546.989C385.9 546.989 382.5 544.024 382.5 539.577C382.5 535.13 385.9 532.165 391 532.165C395.25 532.165 399.5 535.13 399.5 539.577Z" fill="#4277A9" fill-opacity="0.25"/>
<path d="M457.297 531.422C457.297 533.646 454.747 535.87 452.197 535.87C449.647 535.87 447.097 533.646 447.097 531.422C447.097 529.199 449.647 526.975 452.197 526.975C454.747 526.975 457.297 528.458 457.297 531.422Z" fill="#4277A9" fill-opacity="0.25"/>
<path d="M455.598 531.424C455.598 532.906 453.898 534.388 452.198 534.388C450.498 534.388 448.798 532.906 448.798 531.424C448.798 529.941 450.498 528.459 452.198 528.459C453.898 528.459 455.598 529.941 455.598 531.424Z" fill="#4277A9" fill-opacity="0.25"/>
<path d="M396.948 539.575C396.948 542.54 394.398 544.764 390.998 544.764C387.598 544.764 385.048 542.54 385.048 539.575C385.048 536.611 387.598 534.387 390.998 534.387C393.548 534.387 396.948 536.611 396.948 539.575Z" fill="#4277A9" fill-opacity="0.25"/>
<path d="M467.498 369.847C467.498 372.071 464.948 374.294 462.398 374.294C459.848 374.294 457.298 372.071 457.298 369.847C457.298 367.624 459.848 365.4 462.398 365.4C464.948 365.4 467.498 366.883 467.498 369.847Z" fill="#4277A9" fill-opacity="0.25"/>
<path d="M398.647 539.576C398.647 543.282 395.247 546.246 390.997 546.246C386.747 546.246 383.347 543.282 383.347 539.576C383.347 535.87 386.747 532.905 390.997 532.905C395.247 532.905 398.647 535.87 398.647 539.576Z" fill="#4277A9" fill-opacity="0.25"/>
<path d="M170.85 548.47C170.85 551.435 168.3 554.4 164.05 554.4C160.65 554.4 157.25 552.176 157.25 548.47C157.25 545.506 159.8 542.541 164.05 542.541C168.3 542.541 170.85 545.506 170.85 548.47Z" fill="#4277A9" fill-opacity="0.25"/>
<path d="M395.25 539.576C395.25 541.799 393.55 543.282 391 543.282C388.45 543.282 386.75 541.799 386.75 539.576C386.75 537.352 388.45 535.87 391 535.87C393.55 535.128 395.25 537.352 395.25 539.576Z" fill="#4277A9" fill-opacity="0.25"/>
<path d="M167.453 548.47C167.453 549.952 165.753 551.434 164.053 551.434C162.353 551.434 160.653 549.952 160.653 548.47C160.653 546.987 162.353 545.505 164.053 545.505C166.603 545.505 167.453 546.987 167.453 548.47Z" fill="#4277A9" fill-opacity="0.25"/>
<path d="M207.398 452.117C207.398 453.6 206.548 454.341 204.848 454.341C203.148 454.341 202.298 452.858 202.298 452.117C202.298 450.635 203.998 449.894 204.848 449.894C206.548 449.894 207.398 450.635 207.398 452.117Z" fill="#4277A9" fill-opacity="0.25"/>
<path d="M399.5 539.576C399.5 544.023 395.25 546.988 391 546.988C385.9 546.988 382.5 543.282 382.5 539.576C382.5 535.129 386.75 532.164 391 532.164C395.25 531.423 399.5 535.129 399.5 539.576Z" fill="#4277A9" fill-opacity="0.25"/>
<path d="M206.553 452.118C206.553 452.859 205.703 453.6 204.853 453.6C204.003 453.6 203.153 452.859 203.153 452.118C203.153 451.377 204.003 450.636 204.853 450.636C205.703 450.636 206.553 451.377 206.553 452.118Z" fill="#4277A9" fill-opacity="0.25"/>
<path d="M327.252 308.328C327.252 309.811 325.552 311.293 323.852 311.293C322.152 311.293 320.452 309.811 320.452 308.328C320.452 306.846 322.152 305.364 323.852 305.364C325.552 304.622 327.252 306.105 327.252 308.328Z" fill="#4277A9" fill-opacity="0.25"/>
<path d="M275.401 629.999C274.551 629.258 273.701 629.258 272.851 629.258C272.001 629.258 271.151 629.258 269.451 629.999H275.401Z" fill="#4277A9" fill-opacity="0.25"/>
<path d="M275.398 629.999C274.548 629.258 273.698 629.258 272.848 629.258C271.998 629.258 271.148 629.258 270.298 629.999H275.398Z" fill="#4277A9" fill-opacity="0.25"/>
<path d="M169.998 548.47C169.998 551.435 167.448 552.917 164.898 552.917C161.498 552.917 159.798 550.693 159.798 548.47C159.798 545.505 162.348 544.023 164.898 544.023C167.448 544.023 169.998 546.246 169.998 548.47Z" fill="#4277A9" fill-opacity="0.25"/>
<path d="M167.447 548.47C167.447 549.953 166.597 550.694 164.897 550.694C163.197 550.694 162.347 549.953 162.347 548.47C162.347 546.988 163.197 546.247 164.897 546.247C165.747 546.247 167.447 546.988 167.447 548.47Z" fill="#4277A9" fill-opacity="0.25"/>
<path d="M328.95 308.329C328.95 310.553 326.4 312.777 323.85 312.777C321.3 312.777 318.75 310.553 318.75 308.329C318.75 306.106 321.3 303.882 323.85 303.882C326.4 303.882 328.95 306.106 328.95 308.329Z" fill="#4277A9" fill-opacity="0.25"/>
<path d="M209.097 452.118C209.097 454.341 207.397 455.823 204.847 455.823C202.297 455.823 200.597 454.341 200.597 452.118C200.597 449.894 202.297 448.412 204.847 448.412C207.397 448.412 209.097 449.894 209.097 452.118Z" fill="#4277A9" fill-opacity="0.25"/>
<path d="M141.098 282.388C141.098 283.87 139.398 285.353 137.698 285.353C135.998 285.353 134.298 283.87 134.298 282.388C134.298 280.906 135.998 279.423 137.698 279.423C139.398 279.423 141.098 280.906 141.098 282.388Z" fill="#4277A9" fill-opacity="0.25"/>
<path d="M207.398 452.117C207.398 453.6 205.698 454.341 204.848 454.341C203.148 454.341 202.298 452.858 202.298 452.117C202.298 450.635 203.998 449.894 204.848 449.894C206.548 449.894 207.398 450.635 207.398 452.117Z" fill="#4277A9" fill-opacity="0.25"/>
<path d="M98.6028 335.753C98.6028 337.976 96.0528 340.2 93.5028 340.2C90.9528 340.2 88.4028 337.976 88.4028 335.753C88.4028 333.529 90.9528 331.306 93.5028 331.306C96.0528 331.306 98.6028 333.529 98.6028 335.753Z" fill="#4277A9" fill-opacity="0.25"/>
<path d="M141.097 282.387C141.097 284.611 139.397 286.093 136.847 286.093C134.297 286.093 132.597 284.611 132.597 282.387C132.597 280.164 134.297 278.681 136.847 278.681C139.397 278.681 141.097 280.905 141.097 282.387Z" fill="#4277A9" fill-opacity="0.25"/>
<path d="M168.3 548.47C168.3 549.952 166.6 551.434 164.9 551.434C163.2 551.434 161.5 549.952 161.5 548.47C161.5 546.987 163.2 545.505 164.9 545.505C166.6 545.505 168.3 546.987 168.3 548.47Z" fill="#4277A9" fill-opacity="0.25"/>
<path d="M52.7052 498.812C52.7052 501.776 49.3052 504.741 45.9052 504.741C42.5052 504.741 39.1052 501.776 39.1052 498.812C39.1052 495.847 42.5052 492.882 45.9052 492.882C49.3052 492.882 52.7052 495.847 52.7052 498.812Z" fill="#4277A9" fill-opacity="0.25"/>
<path d="M170.851 548.471C170.851 551.436 168.301 553.659 164.901 553.659C161.501 553.659 158.951 551.436 158.951 548.471C158.951 545.506 161.501 543.283 164.901 543.283C168.301 543.283 170.851 545.506 170.851 548.471Z" fill="#4277A9" fill-opacity="0.25"/>
<path d="M50.9999 498.812C50.9999 501.036 49.2999 502.518 46.7499 502.518C44.1999 502.518 42.4999 501.036 42.4999 498.812C42.4999 496.588 44.1999 495.106 46.7499 495.106C48.4499 495.106 50.9999 496.588 50.9999 498.812Z" fill="#4277A9" fill-opacity="0.25"/>
<path d="M208.252 452.117C208.252 453.599 206.552 455.081 204.852 455.081C203.152 455.081 201.452 453.599 201.452 452.117C201.452 450.634 203.152 449.152 204.852 449.152C206.552 449.152 208.252 450.634 208.252 452.117Z" fill="#4277A9" fill-opacity="0.25"/>
<path d="M204.85 456.564C207.666 456.564 209.95 454.573 209.95 452.117C209.95 449.661 207.666 447.67 204.85 447.67C202.033 447.67 199.75 449.661 199.75 452.117C199.75 454.573 202.033 456.564 204.85 456.564Z" fill="#4277A9" fill-opacity="0.25"/>
<path d="M53.5499 498.811C53.5499 502.517 50.1499 505.482 45.8999 505.482C41.6499 505.482 38.2499 502.517 38.2499 498.811C38.2499 495.105 41.6499 492.14 45.8999 492.14C50.1499 492.14 53.5499 495.105 53.5499 498.811Z" fill="#4277A9" fill-opacity="0.25"/>
<path d="M96.8968 335.752C96.8968 337.235 95.1968 338.717 93.4968 338.717C91.7968 338.717 90.0968 337.235 90.0968 335.752C90.0968 334.27 91.7968 332.788 93.4968 332.788C95.1968 332.788 96.8968 334.27 96.8968 335.752Z" fill="#4277A9" fill-opacity="0.25"/>
<path d="M920.547 133.411C920.547 135.635 917.997 137.858 915.447 137.858C912.897 137.858 910.347 135.635 910.347 133.411C910.347 131.188 912.897 128.964 915.447 128.964C918.847 128.964 920.547 131.188 920.547 133.411Z" fill="#4277A9" fill-opacity="0.25"/>
<path d="M563.551 148.976C566.368 148.976 568.651 146.985 568.651 144.529C568.651 142.073 566.368 140.082 563.551 140.082C560.735 140.082 558.451 142.073 558.451 144.529C558.451 146.985 560.735 148.976 563.551 148.976Z" fill="#4277A9" fill-opacity="0.25"/>
<path d="M921.401 133.411C921.401 136.376 918.851 137.858 916.301 137.858C912.901 137.858 911.201 135.635 911.201 133.411C911.201 131.188 913.751 128.964 916.301 128.964C918.851 128.964 921.401 130.446 921.401 133.411Z" fill="#4277A9" fill-opacity="0.25"/>
<path d="M919.701 133.412C919.701 135.635 918.001 137.118 915.451 137.118C912.901 137.118 911.201 135.635 911.201 133.412C911.201 131.188 912.901 129.706 915.451 129.706C918.001 129.706 919.701 131.188 919.701 133.412Z" fill="#4277A9" fill-opacity="0.25"/>
<path d="M747.15 182.329C747.15 185.293 744.6 187.517 741.2 187.517C737.8 187.517 735.25 185.293 735.25 182.329C735.25 179.364 737.8 177.141 741.2 177.141C744.6 177.141 747.15 179.364 747.15 182.329Z" fill="#4277A9" fill-opacity="0.25"/>
<path d="M568.651 144.529C568.651 147.494 566.101 148.976 563.551 148.976C560.151 148.976 558.451 146.753 558.451 144.529C558.451 141.565 561.001 140.082 563.551 140.082C566.101 139.341 568.651 141.565 568.651 144.529Z" fill="#4277A9" fill-opacity="0.25"/>
<path d="M885.7 427.658C885.7 429.881 883.15 432.105 880.6 432.105C878.05 432.105 875.5 429.881 875.5 427.658C875.5 425.434 878.05 423.211 880.6 423.211C884 423.952 885.7 425.434 885.7 427.658Z" fill="#4277A9" fill-opacity="0.25"/>
<path d="M799.003 290.54C799.003 291.282 798.153 292.764 796.453 292.764C795.603 292.764 793.903 292.023 793.903 290.54C793.903 289.799 794.753 288.317 796.453 288.317C798.153 288.317 799.003 289.058 799.003 290.54Z" fill="#4277A9" fill-opacity="0.25"/>
<path d="M915.447 137.858C918.263 137.858 920.547 135.867 920.547 133.411C920.547 130.955 918.263 128.964 915.447 128.964C912.63 128.964 910.347 130.955 910.347 133.411C910.347 135.867 912.63 137.858 915.447 137.858Z" fill="#4277A9" fill-opacity="0.25"/>
<path d="M885.7 427.658C885.7 429.881 883.15 432.105 880.6 432.105C878.05 432.105 875.5 429.881 875.5 427.658C875.5 425.434 878.05 423.211 880.6 423.211C884 423.211 885.7 425.434 885.7 427.658Z" fill="#4277A9" fill-opacity="0.25"/>
<path d="M799.85 290.54C799.85 292.023 798.15 292.764 797.3 292.764C795.6 292.764 794.75 291.282 794.75 290.54C794.75 289.058 796.45 288.317 797.3 288.317C798.15 287.576 799.85 289.058 799.85 290.54Z" fill="#4277A9" fill-opacity="0.25"/>
<path d="M922.253 133.411C922.253 136.376 919.703 139.341 915.453 139.341C912.053 139.341 908.653 137.117 908.653 133.411C908.653 130.447 911.203 127.482 915.453 127.482C919.703 127.482 922.253 130.447 922.253 133.411Z" fill="#4277A9" fill-opacity="0.25"/>
<path d="M804.951 290.541C804.951 294.247 801.551 297.953 796.451 297.953C792.201 297.953 787.951 294.988 787.951 290.541C787.951 286.835 791.351 283.129 796.451 283.129C801.551 283.129 804.951 286.835 804.951 290.541Z" fill="#4277A9" fill-opacity="0.25"/>
<path d="M743.747 182.33C743.747 183.071 742.897 183.812 742.047 183.812C741.197 183.812 740.347 183.071 740.347 182.33C740.347 181.589 741.197 180.848 742.047 180.848C742.897 180.106 743.747 180.848 743.747 182.33Z" fill="#4277A9" fill-opacity="0.25"/>
<path d="M885.7 427.658C885.7 429.881 883.15 432.105 880.6 432.105C878.05 432.105 875.5 429.881 875.5 427.658C875.5 425.434 878.05 423.211 880.6 423.211C884 423.211 885.7 425.434 885.7 427.658Z" fill="#4277A9" fill-opacity="0.25"/>
<path d="M880.603 432.847C883.889 432.847 886.553 430.524 886.553 427.659C886.553 424.793 883.889 422.471 880.603 422.471C877.317 422.471 874.653 424.793 874.653 427.659C874.653 430.524 877.317 432.847 880.603 432.847Z" fill="#4277A9" fill-opacity="0.25"/>
<path d="M932.452 630C931.602 629.259 929.902 628.518 928.202 628.518C926.501 628.518 925.651 629.259 923.951 630H932.452Z" fill="#4277A9" fill-opacity="0.25"/>
<path d="M739.503 596.647C739.503 597.388 738.653 598.87 736.953 598.87C735.253 598.87 734.403 598.129 734.403 596.647C734.403 595.906 735.253 594.423 736.953 594.423C738.653 595.164 739.503 595.906 739.503 596.647Z" fill="#4277A9" fill-opacity="0.25"/>
<path d="M889.097 427.658C889.097 431.364 885.697 435.07 880.597 435.07C876.347 435.07 872.097 432.105 872.097 427.658C872.097 423.953 875.497 420.247 880.597 420.247C885.697 420.988 889.097 423.953 889.097 427.658Z" fill="#4277A9" fill-opacity="0.25"/>
<path d="M647.701 380.224C647.701 383.93 644.301 387.636 639.201 387.636C634.951 387.636 630.701 384.671 630.701 380.224C630.701 376.518 634.101 372.812 639.201 372.812C644.301 373.553 647.701 376.518 647.701 380.224Z" fill="#4277A9" fill-opacity="0.25"/>
<path d="M802.402 290.54C802.402 293.505 799.852 294.987 797.302 294.987C793.901 294.987 792.201 292.764 792.201 290.54C792.201 287.576 794.751 286.093 797.302 286.093C799.852 286.093 802.402 287.576 802.402 290.54Z" fill="#4277A9" fill-opacity="0.25"/>
<path d="M885.7 427.658C885.7 429.881 883.15 432.105 880.6 432.105C878.05 432.105 875.5 429.881 875.5 427.658C875.5 425.434 878.05 423.211 880.6 423.211C884 423.211 885.7 425.434 885.7 427.658Z" fill="#4277A9" fill-opacity="0.25"/>
<path d="M744.6 596.647C744.6 599.611 741.2 602.576 737.8 602.576C734.4 602.576 731 599.611 731 596.647C731 593.682 734.4 590.717 737.8 590.717C741.2 590.717 744.6 593.682 744.6 596.647Z" fill="#4277A9" fill-opacity="0.25"/>
<path d="M642.598 380.223C642.598 381.705 640.898 383.188 639.198 383.188C637.498 383.188 635.798 381.705 635.798 380.223C635.798 378.741 637.498 377.258 639.198 377.258C640.898 377.999 642.598 378.741 642.598 380.223Z" fill="#4277A9" fill-opacity="0.25"/>
<path d="M936.701 630C935.001 627.036 931.601 624.812 928.201 624.812C923.951 624.812 921.401 627.036 919.701 630H936.701Z" fill="#4277A9" fill-opacity="0.25"/>
<path d="M743.747 596.647C743.747 599.612 741.197 601.835 737.797 601.835C734.397 601.835 731.847 599.612 731.847 596.647C731.847 593.683 734.397 591.459 737.797 591.459C741.197 591.459 743.747 593.683 743.747 596.647Z" fill="#4277A9" fill-opacity="0.25"/>
<path d="M802.402 290.54C802.402 292.764 799.852 294.987 797.302 294.987C794.751 294.987 792.201 292.764 792.201 290.54C792.201 288.317 794.751 286.093 797.302 286.093C799.852 286.093 802.402 287.576 802.402 290.54Z" fill="#4277A9" fill-opacity="0.25"/>
<path d="M639.202 383.93C641.549 383.93 643.452 382.271 643.452 380.224C643.452 378.177 641.549 376.518 639.202 376.518C636.854 376.518 634.951 378.177 634.951 380.224C634.951 382.271 636.854 383.93 639.202 383.93Z" fill="#4277A9" fill-opacity="0.25"/>
<path d="M745.453 182.329C745.453 183.811 743.753 185.294 742.053 185.294C740.353 185.294 738.653 183.811 738.653 182.329C738.653 180.847 740.353 179.364 742.053 179.364C743.753 179.364 745.453 180.106 745.453 182.329Z" fill="#4277A9" fill-opacity="0.25"/>
<path d="M743.747 182.329C743.747 183.07 742.897 183.811 742.047 183.811C741.197 183.811 740.347 183.07 740.347 182.329C740.347 181.588 741.197 180.846 742.047 180.846C742.897 180.846 743.747 181.588 743.747 182.329Z" fill="#4277A9" fill-opacity="0.25"/>
<path d="M646.85 380.224C646.85 383.929 643.45 386.153 640.05 386.153C635.8 386.153 633.25 383.188 633.25 380.224C633.25 376.518 636.65 374.294 640.05 374.294C643.45 374.294 646.85 377.259 646.85 380.224Z" fill="#4277A9" fill-opacity="0.25"/>
<path d="M570.35 144.529C570.35 148.235 566.95 150.459 563.55 150.459C559.3 150.459 556.75 147.494 556.75 144.529C556.75 140.824 560.15 138.6 563.55 138.6C566.95 137.859 570.35 140.824 570.35 144.529Z" fill="#4277A9" fill-opacity="0.25"/>
<path d="M642.598 380.223C642.598 381.705 640.898 383.188 639.198 383.188C637.498 383.188 635.798 381.705 635.798 380.223C635.798 378.741 637.498 377.258 639.198 377.258C641.748 377.999 642.598 378.741 642.598 380.223Z" fill="#4277A9" fill-opacity="0.25"/>
<path d="M347.653 478.8C347.653 481.023 345.953 482.505 343.403 482.505C340.853 482.505 339.153 481.023 339.153 478.8C339.153 476.576 340.853 475.094 343.403 475.094C345.953 474.353 347.653 476.576 347.653 478.8Z" fill="#4277A9" fill-opacity="0.25"/>
<path d="M646.848 380.223C646.848 383.929 643.448 386.893 639.198 386.893C634.948 386.893 631.548 383.929 631.548 380.223C631.548 376.517 634.948 373.552 639.198 373.552C643.448 374.293 646.848 377.258 646.848 380.223Z" fill="#4277A9" fill-opacity="0.25"/>
<path d="M345.947 478.8C345.947 479.542 345.097 481.024 343.397 481.024C342.547 481.024 340.847 480.283 340.847 478.8C340.847 478.059 341.697 476.577 343.397 476.577C344.247 476.577 345.947 477.318 345.947 478.8Z" fill="#4277A9" fill-opacity="0.25"/>
<path d="M335.747 246.811C335.747 249.775 333.197 251.999 329.797 251.999C326.397 251.999 323.847 249.775 323.847 246.811C323.847 243.846 326.397 241.623 329.797 241.623C333.197 242.364 335.747 244.587 335.747 246.811Z" fill="#4277A9" fill-opacity="0.25"/>
<path d="M747.15 596.647C747.15 601.094 742.9 605.541 736.95 605.541C731.85 605.541 726.75 601.836 726.75 596.647C726.75 592.2 731 587.753 736.95 587.753C742.9 588.495 747.15 592.2 747.15 596.647Z" fill="#4277A9" fill-opacity="0.25"/>
<path d="M645.151 380.223C645.151 382.447 642.601 384.67 640.051 384.67C637.501 384.67 634.951 382.447 634.951 380.223C634.951 378 637.501 375.776 640.051 375.776C642.601 375.776 645.151 378 645.151 380.223Z" fill="#4277A9" fill-opacity="0.25"/>
<path d="M741.201 596.647C741.201 598.871 739.501 600.353 736.951 600.353C734.401 600.353 732.701 598.871 732.701 596.647C732.701 594.423 734.401 592.941 736.951 592.941C739.501 593.682 741.201 595.165 741.201 596.647Z" fill="#4277A9" fill-opacity="0.25"/>
<path d="M335.748 246.811C335.748 249.035 333.198 251.258 330.648 251.258C328.098 251.258 325.548 249.035 325.548 246.811C325.548 244.588 328.098 242.364 330.648 242.364C333.198 242.364 335.748 244.588 335.748 246.811Z" fill="#4277A9" fill-opacity="0.25"/>
<path d="M345.101 478.8C345.101 479.542 344.251 480.283 343.401 480.283C342.551 480.283 341.701 479.542 341.701 478.8C341.701 478.059 342.551 477.318 343.401 477.318C344.251 476.577 345.101 477.318 345.101 478.8Z" fill="#4277A9" fill-opacity="0.25"/>
<path d="M165.747 294.988C167.625 294.988 169.147 293.661 169.147 292.024C169.147 290.386 167.625 289.059 165.747 289.059C163.869 289.059 162.347 290.386 162.347 292.024C162.347 293.661 163.869 294.988 165.747 294.988Z" fill="#4277A9" fill-opacity="0.25"/>
<path d="M290.7 541.8C290.7 544.024 289 546.247 285.6 546.247C283.05 546.247 280.5 544.765 280.5 541.8C280.5 539.577 282.2 537.353 285.6 537.353C288.15 537.353 290.7 539.577 290.7 541.8Z" fill="#4277A9" fill-opacity="0.25"/>
<path d="M289.847 541.799C289.847 543.281 288.147 545.505 285.597 545.505C283.897 545.505 281.347 544.023 281.347 541.799C281.347 539.575 283.047 538.093 285.597 538.093C288.147 538.093 289.847 540.317 289.847 541.799Z" fill="#4277A9" fill-opacity="0.25"/>
<path d="M351.903 478.799C351.903 482.505 348.503 486.211 343.403 486.211C339.153 486.211 334.903 483.246 334.903 478.799C334.903 475.093 338.303 471.387 343.403 471.387C347.653 471.387 351.903 474.352 351.903 478.799Z" fill="#4277A9" fill-opacity="0.25"/>
<path d="M351.05 478.8C351.05 482.505 347.65 485.47 343.4 485.47C339.15 485.47 335.75 482.505 335.75 478.8C335.75 475.094 339.15 472.129 343.4 472.129C347.65 472.129 351.05 475.094 351.05 478.8Z" fill="#4277A9" fill-opacity="0.25"/>
<path d="M288.148 541.8C288.148 543.283 287.298 544.024 285.598 544.024C283.898 544.024 283.048 543.283 283.048 541.8C283.048 540.318 283.898 539.577 285.598 539.577C287.298 539.577 288.148 540.318 288.148 541.8Z" fill="#4277A9" fill-opacity="0.25"/>
<path d="M171.698 292.023C171.698 294.988 169.148 297.211 165.748 297.211C162.348 297.211 159.798 294.988 159.798 292.023C159.798 289.058 162.348 286.835 165.748 286.835C169.148 287.576 171.698 289.8 171.698 292.023Z" fill="#4277A9" fill-opacity="0.25"/>
<path d="M289.001 541.8C289.001 543.282 287.301 544.764 285.601 544.764C283.901 544.764 282.201 543.282 282.201 541.8C282.201 540.317 283.901 538.835 285.601 538.835C287.301 538.835 289.001 540.317 289.001 541.8Z" fill="#4277A9" fill-opacity="0.25"/>
<path d="M289.001 541.8C289.001 543.282 287.301 544.764 285.601 544.764C283.901 544.764 282.201 543.282 282.201 541.8C282.201 540.317 283.901 538.835 285.601 538.835C287.301 538.835 289.001 540.317 289.001 541.8Z" fill="#4277A9" fill-opacity="0.25"/>
<path d="M290.7 541.8C290.7 544.024 288.15 546.247 285.6 546.247C283.05 546.247 280.5 544.024 280.5 541.8C280.5 539.577 283.05 537.353 285.6 537.353C288.15 537.353 290.7 539.577 290.7 541.8Z" fill="#4277A9" fill-opacity="0.25"/>
</g>
<defs>
<clipPath id="clip0">
<rect width="1020" height="630" fill="white"/>
</clipPath>
</defs>
</svg>
