<svg width="118" height="70" viewBox="0 0 118 70" fill="none" xmlns="http://www.w3.org/2000/svg">
<path d="M51.8033 24.712H55.2353V17.296H51.8033V24.712ZM43.8113 24.712H47.2433V17.296H43.8113V24.712ZM43.8113 28.72H47.2433V25.288H43.8113V28.72ZM47.8193 28.72H51.2273V25.288H47.8193V28.72ZM51.8033 28.72H55.2353V25.288H51.8033V28.72ZM43.8113 36.712H47.2433V29.296H43.8113V36.712ZM51.8033 36.712H55.2353V29.296H51.8033V36.712ZM59.7956 20.728H63.2276V17.296H59.7956V20.728ZM63.8036 20.728H67.2116V17.296H63.8036V20.728ZM67.7876 20.728H71.2196V17.296H67.7876V20.728ZM63.8036 32.704H67.2116V21.304H63.8036V32.704ZM59.7956 36.712H63.2276V33.28H59.7956V36.712ZM63.8036 36.712H67.2116V33.28H63.8036V36.712ZM67.7876 36.712H71.2196V33.28H67.7876V36.712ZM81.78 26.992L83.484 35.536L87.132 17.296H83.724L81.78 26.992ZM75.852 17.296L79.5 35.536L81.204 26.992L79.26 17.296H75.852ZM79.86 36.712H83.124L81.492 28.48L79.86 36.712ZM95.7724 20.728H103.188V17.296H95.7724V20.728ZM91.7644 20.728H95.1964V17.296H91.7644V20.728ZM91.7644 24.712H95.1964V21.304H91.7644V24.712ZM91.7644 28.72H95.1964V25.288H91.7644V28.72ZM95.7724 28.72H99.1804V25.288H95.7724V28.72ZM91.7644 32.704H95.1964V29.296H91.7644V32.704ZM91.7644 36.712H95.1964V33.28H91.7644V36.712ZM95.7724 36.712H103.188V33.28H95.7724V36.712Z" fill="#FD7E23"/>
<path d="M49.9493 47.7L52.0943 53.07V41.685H49.9493V47.7ZM44.9543 41.685V53.07L47.0993 47.7V41.685H44.9543ZM48.5243 50.37L49.5743 47.73L48.5243 45.105L47.4743 47.73L48.5243 50.37ZM45.0443 53.82H47.0993V48.66L45.0443 53.82ZM49.9493 53.82H52.0043L49.9493 48.66V53.82ZM47.4593 48.675V53.055L48.3293 50.865L47.4593 48.675ZM48.7193 50.865L49.5893 53.055V48.675L48.7193 50.865ZM59.2495 48.855H61.3345L60.2245 41.655H58.9945L58.6645 44.22L59.2495 48.855ZM55.6945 48.855H57.7795L58.3645 44.22L58.0345 41.655H56.8045L55.6945 48.855ZM58.3345 41.655L58.5145 43.035L58.6945 41.655H58.3345ZM55.3495 51.345H57.4495L57.7345 49.155H55.6795L55.3495 51.345ZM57.7645 51.345H59.2645L58.9945 49.155H58.0345L57.7645 51.345ZM59.5795 51.345H61.6795L61.3495 49.155H59.2945L59.5795 51.345ZM54.9445 53.85H57.1345L57.4195 51.645H55.2745L54.9445 53.85ZM59.8945 53.85H62.0845L61.7545 51.645H59.6095L59.8945 53.85ZM64.9348 51.315H67.0798V41.685H64.9348V51.315ZM64.9348 53.82H67.0798V51.675H64.9348V53.82ZM67.4398 53.82H72.0748V51.675H67.4398V53.82ZM74.925 51.315H77.07V41.685H74.925V51.315ZM74.925 53.82H77.07V51.675H74.925V53.82ZM77.43 53.82H82.065V51.675H77.43V53.82ZM87.4202 43.83H92.0552V41.685H87.4202V43.83ZM84.9152 43.83H87.0602V41.685H84.9152V43.83ZM84.9152 46.32H87.0602V44.19H84.9152V46.32ZM84.9152 48.825H87.0602V46.68H84.9152V48.825ZM87.4202 48.825H89.5502V46.68H87.4202V48.825ZM84.9152 51.315H87.0602V49.185H84.9152V51.315ZM84.9152 53.82H87.0602V51.675H84.9152V53.82ZM87.4202 53.82H92.0552V51.675H87.4202V53.82ZM94.9055 43.83H97.0505V41.685H94.9055V43.83ZM97.4105 43.83H99.5405V41.685H97.4105V43.83ZM99.9005 43.83H102.045V41.685H99.9005V43.83ZM97.4105 53.82H99.5405V44.19H97.4105V53.82Z" fill="#C58151"/>
<path d="M21.7301 34.0202L26.7976 30.896L31.865 27.7717V40.2686L21.7301 46.5171L21.7301 34.0202Z" fill="#783D12"/>
<path d="M21.8319 34.0202L16.7644 30.896L11.6969 27.7717V40.2686L21.8319 46.5171L21.8319 34.0202Z" fill="#FD7E23"/>
<path d="M21.7301 22.0385L32.0196 27.7717L21.7301 34.3231L11.5951 27.7717L21.7301 22.0385Z" fill="#C58151"/>
<path d="M21.9865 13.6776L36.7801 21.8985L34.3719 26.2431L19.5409 18.0221L21.9865 13.6776Z" fill="#C58151"/>
<path d="M21.9865 13.6776L4.42857 22.994L5.14523 24.4273L6.12016 28.01L24.1387 18.0221L21.9865 13.6776Z" fill="#C58151"/>
<path d="M34.1139 43.0432L21.6282 49.9085L21.6282 55.6417L36.5221 47.3878L34.1139 43.0432Z" fill="#783D12"/>
<path d="M6.53689 40.2706L21.6282 49.9085L21.6282 55.6417L12.7593 50.058L8.32481 47.2661L6.10758 45.8702L4.99897 45.1722L4.607 44.9288L6.53689 40.2706Z" fill="#FD7E23"/>
<path d="M9.44513 26.2189L9.44513 45.9268L4.42857 44.8519L4.42857 22.994L9.44513 26.2189Z" fill="#FD7E23"/>
</svg>
