<svg width="64" height="64" viewBox="0 0 64 64" fill="none" xmlns="http://www.w3.org/2000/svg">
<g clip-path="url(#clip0)">
<path d="M63.0358 39.741C58.7618 56.884 41.3988 67.317 24.2538 63.042C7.11583 58.768 -3.31717 41.404 0.958827 24.262C5.23083 7.117 22.5938 -3.317 39.7338 0.957001C56.8778 5.231 67.3098 22.597 63.0358 39.741Z" fill="url(#paint0_linear)"/>
<path d="M46.1008 27.441C46.7378 23.183 43.4958 20.894 39.0628 19.367L40.5008 13.599L36.9898 12.724L35.5898 18.34C34.6668 18.11 33.7188 17.893 32.7768 17.678L34.1868 12.025L30.6778 11.15L29.2388 16.916C28.4748 16.742 27.7248 16.57 26.9968 16.389L27.0008 16.371L22.1588 15.162L21.2248 18.912C21.2248 18.912 23.8298 19.509 23.7748 19.546C25.1968 19.901 25.4538 20.842 25.4108 21.588C21.4708 37.389 25.4108 21.588 21.4708 37.389C21.2968 37.821 20.8558 38.469 19.8618 38.223C19.8968 38.274 17.3098 37.586 17.3098 37.586L15.5668 41.605L20.1358 42.744C20.9858 42.957 21.8188 43.18 22.6388 43.39L21.1858 49.224L24.6928 50.099L26.1318 44.327C27.0898 44.587 28.0198 44.827 28.9298 45.053L27.4958 50.798L31.0068 51.673L32.4598 45.85C38.4468 46.983 42.9488 46.526 44.8438 41.111C46.3708 36.751 44.7678 34.236 41.6178 32.596C43.9118 32.067 45.6398 30.558 46.1008 27.441ZM38.0788 38.69C36.9938 43.05 29.6528 40.693 27.2728 40.102L29.2008 32.373C31.5808 32.967 39.2128 34.143 38.0788 38.69ZM39.1648 27.378C38.1748 31.344 32.0648 29.329 30.0828 28.835L31.8308 21.825C33.8128 22.319 40.1958 23.241 39.1648 27.378Z" fill="white"/>
</g>
<defs>
<linearGradient id="paint0_linear" x1="0.000366211" y1="-0.000595093" x2="0.000366211" y2="64.0001" gradientUnits="userSpaceOnUse">
<stop stop-color="#F9AA4B"/>
<stop offset="1" stop-color="#F7931A"/>
</linearGradient>
<clipPath id="clip0">
<rect width="64" height="64" fill="white"/>
</clipPath>
</defs>
</svg>
