<svg width="24" height="24" viewBox="0 0 24 24" fill="none" xmlns="http://www.w3.org/2000/svg">
<g clip-path="url(#clip0)">
<path d="M18.9278 24H1.0127C0.489033 24 0.064743 23.5757 0.064743 23.0521V5.13735C0.064743 4.61368 0.489033 4.18939 1.0127 4.18939H18.9278C19.4515 4.18939 19.8758 4.61409 19.8758 5.13735V23.0521C19.8758 23.5753 19.4515 24 18.9278 24ZM1.96066 22.1037H17.9795V6.08531H1.96066V22.1037Z" fill="white"/>
<path d="M22.9869 19.811H21.0622C20.5385 19.811 20.1143 19.3863 20.1143 18.8631C20.1143 18.3394 20.5385 17.9151 21.0622 17.9151H22.039V1.89633H6.01978V2.95097C6.01978 3.47464 5.59549 3.89893 5.07182 3.89893C4.54815 3.89893 4.12386 3.47423 4.12386 2.95097V0.947961C4.12386 0.424696 4.54815 0 5.07182 0H22.9869C23.5106 0 23.9349 0.424696 23.9349 0.947961V18.8631C23.9349 19.3863 23.5106 19.811 22.9869 19.811Z" fill="white"/>
</g>
<defs>
<clipPath id="clip0">
<rect width="24" height="24" fill="white"/>
</clipPath>
</defs>
</svg>
