<svg width="24" height="24" viewBox="0 0 24 24" fill="none" xmlns="http://www.w3.org/2000/svg">
<g clip-path="url(#clip0)">
<path d="M10.0052 1.60474C5.36777 1.60474 1.6084 5.36411 1.6084 10.0015C1.6084 14.639 5.36777 18.3984 10.0052 18.3984C14.6427 18.3984 18.402 14.639 18.402 10.0015C18.397 5.36621 14.6406 1.60978 10.0052 1.60474ZM10.0052 2.40443C12.4751 2.40638 14.7896 3.61012 16.2093 5.63121L15.2096 6.63083C14.9664 6.48363 14.6879 6.40486 14.4035 6.40291C13.5202 6.40291 12.8042 7.11899 12.8042 8.0023C12.8056 8.28695 12.8839 8.56589 13.0309 8.8096L10.4127 11.4278C9.9169 11.1255 9.29383 11.1255 8.79807 11.4278L6.97956 9.60929C7.12656 9.36559 7.20488 9.08664 7.20628 8.802C7.20738 7.92043 6.49365 7.20491 5.61208 7.20381C4.88301 7.20291 4.246 7.69607 4.06427 8.40215H2.58083C3.33789 4.90613 6.42817 2.40968 10.0052 2.40443ZM15.2032 8.0023C15.2032 8.44399 14.8452 8.802 14.4035 8.802C13.9619 8.802 13.6039 8.44399 13.6039 8.0023C13.6039 7.56062 13.9619 7.20261 14.4035 7.20261C14.8452 7.20261 15.2032 7.56062 15.2032 8.0023ZM10.4051 12.8005C10.4051 13.2422 10.047 13.6002 9.60537 13.6002C9.16368 13.6002 8.80567 13.2422 8.80567 12.8005C8.80567 12.3588 9.16368 12.0008 9.60537 12.0008C10.047 12.0008 10.4051 12.3588 10.4051 12.8005ZM6.40658 8.802C6.40658 9.24368 6.04856 9.6017 5.60688 9.6017C5.1652 9.6017 4.80719 9.24368 4.80719 8.802C4.80719 8.36032 5.1652 8.0023 5.60688 8.0023C6.04856 8.0023 6.40658 8.36032 6.40658 8.802ZM13.6965 16.6443C12.5673 17.2713 11.2968 17.5998 10.0052 17.5986C5.8123 17.6015 2.41094 14.2048 2.4081 10.0119C2.4079 9.74129 2.42219 9.47085 2.45088 9.2018H4.06427C4.24605 9.90578 4.87981 10.3986 5.60688 10.4013C5.89152 10.3999 6.17047 10.3216 6.41418 10.1746L8.23269 11.9931C8.08569 12.2368 8.00737 12.5158 8.00597 12.8004C8.00597 13.6837 8.72205 14.3998 9.60537 14.3998C10.4887 14.3998 11.2048 13.6837 11.2048 12.8004C11.2034 12.5158 11.125 12.2368 10.978 11.9931L13.5963 9.37493C13.84 9.52193 14.1189 9.60025 14.4035 9.60165C15.2869 9.60165 16.0029 8.88557 16.0029 8.00225C16.0015 7.71761 15.9232 7.43867 15.7762 7.19496L16.6479 6.32369C18.6829 9.9887 17.3615 14.6094 13.6965 16.6443Z" fill="#F1F1F1"/>
<path d="M20.0015 4.0157C20.7286 4.01295 21.3623 3.52019 21.5441 2.81615H24V2.01646H21.5441C21.3623 1.31242 20.7286 0.819661 20.0015 0.816912C19.1182 0.816912 18.4021 1.53299 18.4021 2.41631C18.4035 2.70095 18.4818 2.97989 18.6288 3.2236L17.9263 3.92613C14.5648 -0.453257 8.28959 -1.27844 3.9102 2.08303C-0.469187 5.44451 -1.29437 11.7198 2.0671 16.0992C5.2401 20.233 11.0564 21.2357 15.4304 18.4031L16.6372 19.6098L17.2026 20.1752L20.4213 23.394C21.24 24.2126 22.5672 24.2126 23.3858 23.394C24.2045 22.5753 24.2045 21.2481 23.3858 20.4295L20.167 17.2107L19.6017 16.6453L18.3949 15.4386C20.537 12.139 20.537 7.88788 18.3949 4.58828L19.1946 3.78859C19.4382 3.93563 19.717 4.0141 20.0015 4.0157ZM20.0015 1.61661C20.4432 1.61661 20.8012 1.97462 20.8012 2.41631C20.8012 2.85799 20.4432 3.216 20.0015 3.216C19.5598 3.216 19.2018 2.85799 19.2018 2.41631C19.2018 1.97462 19.5599 1.61661 20.0015 1.61661ZM22.8204 20.9949C23.3325 21.4955 23.3419 22.3165 22.8413 22.8286C22.3407 23.3407 21.5197 23.35 21.0076 22.8494C21.0005 22.8426 20.9936 22.8356 20.9867 22.8286L17.7679 19.6098L19.6017 17.7761L22.8204 20.9949ZM19.0363 17.2107L17.2026 19.0444L16.0958 17.9376C16.1522 17.8944 16.2049 17.8469 16.2605 17.8025C16.3161 17.7581 16.3805 17.7049 16.4401 17.6549C16.5276 17.5814 16.614 17.507 16.6988 17.4306C16.7423 17.3906 16.7839 17.3507 16.8267 17.3107C16.9906 17.1571 17.1494 16.9984 17.3029 16.8344C17.3429 16.7917 17.3829 16.7501 17.4229 16.7065C17.4992 16.6217 17.5736 16.5354 17.6472 16.4478C17.6973 16.3886 17.7465 16.3288 17.7947 16.2683C17.8387 16.2131 17.8863 16.1603 17.9295 16.1039L19.0363 17.2107ZM17.4857 15.3534C17.3597 15.5293 17.2298 15.7017 17.0926 15.8676C17.0526 15.916 17.0098 15.9628 16.9687 16.0104C16.8463 16.1527 16.7199 16.2908 16.5896 16.4246C16.5328 16.4832 16.4751 16.541 16.4165 16.5977C16.2832 16.7281 16.1451 16.8544 16.0022 16.9768C15.9546 17.0168 15.9079 17.0604 15.8595 17.1007C15.6935 17.2379 15.5212 17.3678 15.3453 17.4938C11.206 20.4509 5.45327 19.4926 2.49614 15.3534C-0.46099 11.2142 0.497296 5.4614 4.63653 2.50427C8.77576 -0.452858 14.5285 0.50538 17.4857 4.64466C19.7738 7.84755 19.7738 12.1505 17.4857 15.3534Z" fill="#F1F1F1"/>
</g>
<defs>
<clipPath id="clip0">
<rect width="24" height="24" fill="white"/>
</clipPath>
</defs>
</svg>
