<svg width="24" height="24" viewBox="0 0 24 24" fill="none" xmlns="http://www.w3.org/2000/svg">
<g clip-path="url(#clip0)">
<path d="M1.03829 14.1385C0.940634 13.6328 0.878134 13.1211 0.850595 12.6069C0.838681 12.386 0.650009 12.2164 0.428915 12.2283C0.208017 12.2405 0.0386811 12.4291 0.0505951 12.65C0.0796967 13.2006 0.146494 13.7487 0.250595 14.2901C0.286923 14.478 0.451181 14.6137 0.642587 14.6141C0.668173 14.6141 0.693759 14.6115 0.718955 14.6069C0.823447 14.5873 0.916025 14.5268 0.97579 14.4389C1.03575 14.351 1.05821 14.243 1.03829 14.1385Z" fill="#F1F1F1"/>
<path d="M2.82463 18.3759C2.69885 18.1943 2.44944 18.149 2.2678 18.2748C2.08616 18.4005 2.04085 18.65 2.16663 18.8316C2.48088 19.2849 2.82581 19.7162 3.19944 20.122C3.34885 20.2847 3.60198 20.2955 3.76467 20.1461C3.92737 19.9964 3.93811 19.7435 3.7887 19.5808C3.44006 19.2017 3.11799 18.7992 2.82463 18.3759Z" fill="#F1F1F1"/>
<path d="M0.441802 11.4279C0.452935 11.4287 0.463872 11.4287 0.475005 11.4279C0.683794 11.4287 0.857818 11.2687 0.875005 11.0607C0.916997 10.5475 0.994927 10.0377 1.10782 9.53516C1.15626 9.31933 1.02032 9.10508 0.804302 9.05664C0.588482 9.0082 0.374224 9.14414 0.325786 9.35996C0.204302 9.89902 0.120318 10.4459 0.0742238 10.9965C0.0654347 11.1025 0.0994191 11.2076 0.168364 11.2887C0.23731 11.3695 0.335747 11.4197 0.441802 11.4279Z" fill="#F1F1F1"/>
<path d="M6.16426 21.5412C5.72559 21.2709 5.30625 20.9705 4.90898 20.6423C4.73867 20.5017 4.48652 20.5257 4.3457 20.6961C4.20507 20.8664 4.2291 21.1185 4.39941 21.2591C4.82519 21.6103 5.27422 21.932 5.74375 22.222C5.86543 22.3035 6.02188 22.3121 6.15156 22.2443C6.28145 22.1765 6.36387 22.0433 6.36641 21.8968C6.36895 21.7505 6.29141 21.6144 6.16426 21.542V21.5412Z" fill="#F1F1F1"/>
<path d="M1.03185 8.29121C1.07677 8.30801 1.12443 8.3168 1.17267 8.3168C1.33927 8.3168 1.48829 8.21347 1.54708 8.05762C1.68205 7.69726 1.83595 7.34414 2.00822 7C2.1049 6.80273 2.02443 6.56445 1.82775 6.46621C1.63126 6.36797 1.3924 6.44668 1.29259 6.64238C1.10841 7.01152 0.943177 7.38984 0.797864 7.77598C0.72013 7.98281 0.824817 8.21367 1.03185 8.29121Z" fill="#F1F1F1"/>
<path d="M1.43419 15.6293C1.36271 15.4201 1.13517 15.3086 0.925989 15.3803C0.71681 15.4518 0.605482 15.6793 0.676966 15.8885C0.856458 16.4104 1.0715 16.9195 1.32052 17.4121C1.42306 17.6039 1.65997 17.6787 1.85411 17.5805C2.04806 17.4822 2.12814 17.2471 2.03419 17.0508C1.80177 16.5914 1.60118 16.1164 1.43419 15.6293Z" fill="#F1F1F1"/>
<path d="M8.98417 22.7801C8.48847 22.6404 8.00312 22.4668 7.53144 22.26C7.33066 22.1797 7.10253 22.2732 7.01601 22.4713C6.92949 22.6693 7.01601 22.9002 7.21132 22.9928C7.71718 23.2148 8.23749 23.4019 8.76894 23.5527C8.80448 23.5627 8.84101 23.5678 8.87773 23.568C9.07773 23.5684 9.24726 23.4209 9.2746 23.2226C9.30194 23.0246 9.1787 22.8367 8.98612 22.7828L8.98417 22.7801Z" fill="#F1F1F1"/>
<path d="M2.3293 15.3633C2.41348 15.5676 2.64727 15.665 2.85156 15.5811C3.05586 15.4969 3.15352 15.2631 3.06934 15.0588C2.87403 14.5867 2.71934 14.0986 2.60742 13.6C2.55957 13.3842 2.3459 13.248 2.13008 13.2959C1.91407 13.3435 1.77793 13.5574 1.82578 13.7732C1.94805 14.3166 2.1166 14.8484 2.3293 15.3633Z" fill="#F1F1F1"/>
<path d="M2.40175 9.3328C2.44062 9.34491 2.48105 9.35116 2.52187 9.35116C2.69648 9.35116 2.85097 9.23788 2.90332 9.07128C3.05625 8.58241 3.24785 8.10663 3.47656 7.64843C3.57597 7.45097 3.49648 7.21034 3.29921 7.11093C3.10175 7.01151 2.86113 7.091 2.76171 7.28847C2.51386 7.78495 2.30605 8.30038 2.14023 8.83007C2.10801 8.93143 2.11758 9.0414 2.1666 9.13573C2.21562 9.23007 2.30039 9.30097 2.40175 9.3328Z" fill="#F1F1F1"/>
<path d="M2.43418 12.0821V12.0053C2.44063 11.524 2.48067 11.044 2.55411 10.5684C2.57872 10.4258 2.52422 10.2811 2.41172 10.1901C2.29922 10.0988 2.14629 10.0756 2.01172 10.1293C1.87735 10.1828 1.78243 10.3049 1.76348 10.4485C1.68438 10.9602 1.64122 11.4768 1.63419 11.9944V12.1008C1.63458 12.2061 1.67696 12.3067 1.75215 12.3801C1.82754 12.4535 1.92911 12.4938 2.03418 12.4916C2.25704 12.4873 2.43516 12.3049 2.43418 12.0821Z" fill="#F1F1F1"/>
<path d="M6.86778 19.834C6.4502 19.5328 6.05391 19.203 5.68223 18.8469C5.52188 18.7002 5.27384 18.7084 5.12345 18.8655C4.97325 19.0223 4.9756 19.2705 5.12892 19.4244C5.52755 19.8069 5.95255 20.1608 6.40059 20.4836C6.57989 20.6127 6.82989 20.5719 6.95899 20.3924C7.08809 20.2131 7.04727 19.9631 6.86778 19.834Z" fill="#F1F1F1"/>
<path d="M9.59415 21.2191C9.10685 21.0652 8.63341 20.8707 8.17853 20.6377C7.98185 20.5371 7.74083 20.615 7.64044 20.8117C7.53985 21.0086 7.61778 21.2494 7.81466 21.35C8.30938 21.6033 8.82462 21.8148 9.3545 21.9824C9.56544 22.0486 9.78985 21.9316 9.85626 21.7209C9.92247 21.5102 9.80528 21.2855 9.59454 21.2191H9.59415Z" fill="#F1F1F1"/>
<path d="M4.57696 18.2672C4.74962 18.1295 4.77813 17.8779 4.64063 17.7053C4.31876 17.3023 4.02481 16.8779 3.76056 16.4352C3.69122 16.3053 3.55587 16.224 3.40841 16.2236C3.26114 16.2234 3.1254 16.3043 3.05567 16.434C2.98575 16.5639 2.99278 16.7215 3.07423 16.8443C3.35684 17.3184 3.6713 17.7729 4.01544 18.2045C4.15313 18.3773 4.40509 18.4057 4.57774 18.2676L4.57696 18.2672Z" fill="#F1F1F1"/>
<path d="M12.0342 -0.000289557C9.73828 -0.00400049 7.48984 0.653616 5.55781 1.89405L3.92812 0.128617C3.82304 0.0145542 3.66152 -0.0282192 3.51367 0.0184604C3.36582 0.0653354 3.2584 0.193265 3.23769 0.346976L2.43769 6.34697C2.42129 6.471 2.46386 6.5956 2.55254 6.68369C2.6414 6.77178 2.7664 6.81318 2.89023 6.7958L8.49023 5.9958C8.63711 5.97451 8.76035 5.87353 8.80996 5.73369C8.85976 5.59365 8.82773 5.4376 8.72695 5.32861L7.22051 3.69697C10.7141 1.66924 15.1029 2.04522 18.2006 4.6374C21.2982 7.22959 22.442 11.4835 21.0619 15.2796C19.682 19.0757 16.0734 21.602 12.0342 21.5997H12.0293C11.7135 21.5997 11.3978 21.5804 11.0842 21.5421C10.8648 21.5155 10.6654 21.672 10.6391 21.8913C10.6125 22.1106 10.7687 22.31 10.9883 22.3364C11.3332 22.3784 11.6807 22.3995 12.0281 22.3997H12.0342C16.4736 22.4032 20.426 19.5882 21.8738 15.3915C23.3217 11.1946 21.9459 6.5415 18.4484 3.80693C14.9512 1.07237 10.1035 0.85928 6.37988 3.27647C6.28125 3.34092 6.21601 3.44541 6.20136 3.56221C6.18691 3.6792 6.22461 3.79639 6.30449 3.88291L7.62461 5.31182L3.30058 5.93018L3.91816 1.29737L5.19824 2.68701C5.33281 2.83311 5.55429 2.8583 5.71816 2.74619C9.69258 0.0362339 14.9533 0.166703 18.7885 3.07041C22.6234 5.97393 24.1762 11.0022 22.6459 15.5626C21.1158 20.1229 16.8445 23.197 12.0342 23.1997C11.5191 23.1999 11.0049 23.1647 10.4945 23.095C10.2779 23.0686 10.0801 23.2212 10.0504 23.4374C10.0205 23.6536 10.1697 23.854 10.3853 23.8874C14.8258 24.4993 19.2369 22.5856 21.8238 18.9251C24.4107 15.2647 24.7418 10.4677 22.6824 6.48642C20.623 2.50518 16.5164 0.00361669 12.0342 -0.000289557Z" fill="#F1F1F1"/>
<path d="M12.0342 4.40002C11.8133 4.40002 11.6342 4.57913 11.6342 4.80002V12C11.6342 12.1061 11.6764 12.2078 11.7514 12.2828L15.7514 16.2829C15.9084 16.4344 16.1578 16.4323 16.3121 16.278C16.4664 16.1237 16.4686 15.8743 16.317 15.7172L12.4342 11.8344V4.80002C12.4342 4.57913 12.2551 4.40002 12.0342 4.40002Z" fill="#F1F1F1"/>
</g>
<defs>
<clipPath id="clip0">
<rect width="24" height="24" fill="white"/>
</clipPath>
</defs>
</svg>
