<svg width="28" height="28" viewBox="0 0 28 28" fill="none" xmlns="http://www.w3.org/2000/svg">
<path d="M14.542 8.59083C15.2971 8.59083 15.9092 7.97872 15.9092 7.22364C15.9092 6.46856 15.2971 5.85645 14.542 5.85645C13.7869 5.85645 13.1748 6.46856 13.1748 7.22364C13.1748 7.97872 13.7869 8.59083 14.542 8.59083Z" fill="white"/>
<path d="M23.8995 4.10047C21.2552 1.45627 17.7395 0 14 0C10.2605 0 6.74477 1.45627 4.10047 4.10047C1.45627 6.74477 0 10.2605 0 14C0 17.7395 1.45627 21.2552 4.10047 23.8995C6.74477 26.5437 10.2605 28 14 28C17.7395 28 21.2552 26.5437 23.8995 23.8995C26.5437 21.2552 28 17.7395 28 14C28 10.2605 26.5437 6.74477 23.8995 4.10047ZM14 25.8125C7.48656 25.8125 2.1875 20.5134 2.1875 14C2.1875 7.48656 7.48656 2.1875 14 2.1875C20.5134 2.1875 25.8125 7.48656 25.8125 14C25.8125 20.5134 20.5134 25.8125 14 25.8125Z" fill="white"/>
<path d="M15.2319 20.0202C15.0119 20.1276 14.8369 20.0391 14.7523 19.9769C14.6677 19.9146 14.5313 19.7742 14.5686 19.5301L15.5072 13.281C15.6564 12.3027 15.2538 11.3308 14.4565 10.7445C13.6591 10.158 12.611 10.0634 11.7216 10.4975L10.3711 11.1561L11.3296 13.1224L12.6808 12.4634C12.9008 12.3561 13.0758 12.4445 13.1605 12.5068C13.2451 12.569 13.3815 12.7094 13.3442 12.9536L12.4056 19.2026C12.2564 20.1809 12.659 21.1527 13.4562 21.7391C13.9215 22.0813 14.472 22.256 15.0266 22.256C15.4226 22.256 15.8207 22.1669 16.1912 21.9861L17.5417 21.3274L16.5831 19.3611L15.2319 20.0202Z" fill="white"/>
</svg>
