<svg width="24" height="24" viewBox="0 0 24 24" fill="none" xmlns="http://www.w3.org/2000/svg">
<g clip-path="url(#clip0)">
<path d="M2.41846 1.07353H11.2597C12.601 1.0653 13.695 2.1459 13.7032 3.4872V5.83963C13.7032 6.0944 13.4968 6.3008 13.242 6.3008C12.9875 6.3008 12.7809 6.0944 12.7809 5.83963V3.49158C12.7757 2.66009 12.0971 1.99021 11.2656 1.99587H2.41846C1.59906 1.98892 0.929177 2.64799 0.922229 3.46765V3.49158V20.528C0.916053 21.3477 1.57512 22.0173 2.39478 22.0238H11.2597C12.0909 22.0325 12.7721 21.3657 12.7809 20.5342V18.2289C12.7809 17.9741 12.9875 17.7677 13.242 17.7677C13.4968 17.7677 13.7032 17.9741 13.7032 18.2289V20.528C13.6973 21.8696 12.6051 22.952 11.2635 22.9461H2.41846C1.08899 22.9523 0.00606632 21.8794 -0.000110626 20.5499V3.49158C-0.00602913 2.16212 1.06686 1.07945 2.39658 1.07353C2.40379 1.07353 2.41125 1.07353 2.41846 1.07353Z" fill="white"/>
<path d="M22.4135 12.471H6.34435C6.08958 12.471 5.88319 12.2643 5.88319 12.0098C5.88319 11.755 6.08958 11.5486 6.34435 11.5486H22.5159L18.8518 7.32657C18.685 7.13407 18.7056 6.84275 18.8978 6.67599C19.0903 6.50897 19.3816 6.52956 19.5484 6.72206L23.8219 11.6462C23.9385 11.7368 24.0049 11.878 23.9998 12.0258C23.9946 12.1735 23.9189 12.3099 23.7962 12.3925L19.5263 16.6624C19.3461 16.8426 19.0543 16.8426 18.8741 16.6624C18.694 16.4823 18.694 16.1902 18.8741 16.0103L22.4135 12.471Z" fill="white"/>
</g>
<defs>
<clipPath id="clip0">
<rect width="24" height="24" fill="white" transform="matrix(-1 0 0 1 24 0)"/>
</clipPath>
</defs>
</svg>
