<svg width="24" height="24" viewBox="0 0 24 24" fill="none" xmlns="http://www.w3.org/2000/svg">
<path d="M21.444 10.875C21.5992 11.3104 22.0117 11.625 22.5 11.625C23.1203 11.625 23.625 11.1202 23.625 10.5C23.625 9.87975 23.1203 9.375 22.5 9.375C22.0117 9.375 21.5992 9.68962 21.444 10.125H15.375C15.375 9.867 15.3431 9.6165 15.288 9.375H19.125C19.2248 9.375 19.32 9.33563 19.3901 9.26513L20.7803 7.875H21.444C21.5992 8.31038 22.0117 8.625 22.5 8.625C23.1203 8.625 23.625 8.12025 23.625 7.5C23.625 6.87975 23.1203 6.375 22.5 6.375C22.0117 6.375 21.5992 6.68962 21.444 7.125H20.625C20.5252 7.125 20.43 7.16437 20.3599 7.23487L18.9697 8.625H15.0187C14.7555 8.09775 14.3614 7.647 13.875 7.32075V5.51025L16.632 4.47638C16.7779 4.42125 16.875 4.28137 16.875 4.125V2.556C17.3104 2.40075 17.625 1.98825 17.625 1.5C17.625 0.87975 17.1203 0.375 16.5 0.375C15.8798 0.375 15.375 0.87975 15.375 1.5C15.375 1.98825 15.6896 2.40075 16.125 2.556V3.86513L13.875 4.70888V4.056C14.3104 3.90075 14.625 3.48825 14.625 3C14.625 2.37975 14.1202 1.875 13.5 1.875C12.8798 1.875 12.375 2.37975 12.375 3C12.375 3.48825 12.6896 3.90075 13.125 4.056V6.94687C12.7725 6.82162 12.3949 6.75 12 6.75C11.6051 6.75 11.2275 6.82162 10.875 6.94687V2.556C11.3104 2.40075 11.625 1.98825 11.625 1.5C11.625 0.87975 11.1202 0.375 10.5 0.375C9.87975 0.375 9.375 0.87975 9.375 1.5C9.375 1.98825 9.68962 2.40075 10.125 2.556V7.32075C9.8415 7.51087 9.58912 7.74338 9.375 8.0085V4.875C9.375 4.77563 9.33563 4.68 9.26513 4.60988L7.875 3.21975V2.556C8.31038 2.40075 8.625 1.98825 8.625 1.5C8.625 0.87975 8.12025 0.375 7.5 0.375C6.87975 0.375 6.375 0.87975 6.375 1.5C6.375 1.98825 6.68962 2.40075 7.125 2.556V3.375C7.125 3.47438 7.16437 3.57 7.23487 3.64012L8.625 5.03025V10.125H5.50987L4.476 7.36837C4.42125 7.22213 4.28137 7.125 4.125 7.125H2.556C2.40075 6.68962 1.98825 6.375 1.5 6.375C0.87975 6.375 0.375 6.87975 0.375 7.5C0.375 8.12025 0.87975 8.625 1.5 8.625C1.98825 8.625 2.40075 8.31038 2.556 7.875H3.86513L4.70888 10.125H4.056C3.90075 9.68962 3.48825 9.375 3 9.375C2.37975 9.375 1.875 9.87975 1.875 10.5C1.875 11.1202 2.37975 11.625 3 11.625C3.48825 11.625 3.90075 11.3104 4.056 10.875H8.625V12H8.25C8.04262 12 7.875 12.168 7.875 12.375V13.125H2.556C2.40075 12.6896 1.98825 12.375 1.5 12.375C0.87975 12.375 0.375 12.8798 0.375 13.5C0.375 14.1202 0.87975 14.625 1.5 14.625C1.98825 14.625 2.40075 14.3104 2.556 13.875H7.875V14.625H4.875C4.77525 14.625 4.68 14.6644 4.60988 14.7349L3.21975 16.125H2.556C2.40075 15.6896 1.98825 15.375 1.5 15.375C0.87975 15.375 0.375 15.8798 0.375 16.5C0.375 17.1203 0.87975 17.625 1.5 17.625C1.98825 17.625 2.40075 17.3104 2.556 16.875H3.375C3.47475 16.875 3.57 16.8356 3.64012 16.7651L5.03025 15.375H7.875V16.875C7.875 17.082 8.04262 17.25 8.25 17.25H10.125V18.4901L7.368 19.524C7.22213 19.5788 7.125 19.7186 7.125 19.875V21.444C6.68962 21.5992 6.375 22.0117 6.375 22.5C6.375 23.1203 6.87975 23.625 7.5 23.625C8.12025 23.625 8.625 23.1203 8.625 22.5C8.625 22.0117 8.31038 21.5992 7.875 21.444V20.1349L10.125 19.2911V19.944C9.68962 20.0992 9.375 20.5117 9.375 21C9.375 21.6203 9.87975 22.125 10.5 22.125C11.1202 22.125 11.625 21.6203 11.625 21C11.625 20.5117 11.3104 20.0992 10.875 19.944V17.25H13.125V21.444C12.6896 21.5992 12.375 22.0117 12.375 22.5C12.375 23.1203 12.8798 23.625 13.5 23.625C14.1202 23.625 14.625 23.1203 14.625 22.5C14.625 22.0117 14.3104 21.5992 13.875 21.444V17.25H14.625V19.125C14.625 19.2244 14.6644 19.32 14.7349 19.3901L16.125 20.7803V21.444C15.6896 21.5992 15.375 22.0117 15.375 22.5C15.375 23.1203 15.8798 23.625 16.5 23.625C17.1203 23.625 17.625 23.1203 17.625 22.5C17.625 22.0117 17.3104 21.5992 16.875 21.444V20.625C16.875 20.5256 16.8356 20.43 16.7651 20.3599L15.375 18.9697V17.25H15.75C15.9574 17.25 16.125 17.082 16.125 16.875V13.875H18.4901L19.524 16.6316C19.5788 16.7779 19.7186 16.875 19.875 16.875H21.444C21.5992 17.3104 22.0117 17.625 22.5 17.625C23.1203 17.625 23.625 17.1203 23.625 16.5C23.625 15.8798 23.1203 15.375 22.5 15.375C22.0117 15.375 21.5992 15.6896 21.444 16.125H20.1349L19.2911 13.875H19.944C20.0992 14.3104 20.5117 14.625 21 14.625C21.6203 14.625 22.125 14.1202 22.125 13.5C22.125 12.8798 21.6203 12.375 21 12.375C20.5117 12.375 20.0992 12.6896 19.944 13.125H16.125V12.375C16.125 12.168 15.9574 12 15.75 12H15.375V10.875H21.444ZM22.5 10.125C22.707 10.125 22.875 10.2934 22.875 10.5C22.875 10.7066 22.707 10.875 22.5 10.875C22.293 10.875 22.125 10.7066 22.125 10.5C22.125 10.2934 22.293 10.125 22.5 10.125ZM22.5 7.125C22.707 7.125 22.875 7.29338 22.875 7.5C22.875 7.70662 22.707 7.875 22.5 7.875C22.293 7.875 22.125 7.70662 22.125 7.5C22.125 7.29338 22.293 7.125 22.5 7.125ZM16.5 1.125C16.707 1.125 16.875 1.29338 16.875 1.5C16.875 1.70662 16.707 1.875 16.5 1.875C16.293 1.875 16.125 1.70662 16.125 1.5C16.125 1.29338 16.293 1.125 16.5 1.125ZM13.5 2.625C13.707 2.625 13.875 2.79338 13.875 3C13.875 3.20662 13.707 3.375 13.5 3.375C13.293 3.375 13.125 3.20662 13.125 3C13.125 2.79338 13.293 2.625 13.5 2.625ZM10.5 1.125C10.707 1.125 10.875 1.29338 10.875 1.5C10.875 1.70662 10.707 1.875 10.5 1.875C10.293 1.875 10.125 1.70662 10.125 1.5C10.125 1.29338 10.293 1.125 10.5 1.125ZM7.5 1.125C7.707 1.125 7.875 1.29338 7.875 1.5C7.875 1.70662 7.707 1.875 7.5 1.875C7.293 1.875 7.125 1.70662 7.125 1.5C7.125 1.29338 7.293 1.125 7.5 1.125ZM1.5 7.875C1.293 7.875 1.125 7.70662 1.125 7.5C1.125 7.29338 1.293 7.125 1.5 7.125C1.707 7.125 1.875 7.29338 1.875 7.5C1.875 7.70662 1.707 7.875 1.5 7.875ZM3 10.875C2.793 10.875 2.625 10.7066 2.625 10.5C2.625 10.2934 2.793 10.125 3 10.125C3.207 10.125 3.375 10.2934 3.375 10.5C3.375 10.7066 3.207 10.875 3 10.875ZM1.5 13.875C1.293 13.875 1.125 13.7066 1.125 13.5C1.125 13.2934 1.293 13.125 1.5 13.125C1.707 13.125 1.875 13.2934 1.875 13.5C1.875 13.7066 1.707 13.875 1.5 13.875ZM1.5 16.875C1.293 16.875 1.125 16.7066 1.125 16.5C1.125 16.2934 1.293 16.125 1.5 16.125C1.707 16.125 1.875 16.2934 1.875 16.5C1.875 16.7066 1.707 16.875 1.5 16.875ZM7.5 22.875C7.293 22.875 7.125 22.7066 7.125 22.5C7.125 22.2934 7.293 22.125 7.5 22.125C7.707 22.125 7.875 22.2934 7.875 22.5C7.875 22.7066 7.707 22.875 7.5 22.875ZM10.5 21.375C10.293 21.375 10.125 21.2066 10.125 21C10.125 20.7934 10.293 20.625 10.5 20.625C10.707 20.625 10.875 20.7934 10.875 21C10.875 21.2066 10.707 21.375 10.5 21.375ZM13.5 22.875C13.293 22.875 13.125 22.7066 13.125 22.5C13.125 22.2934 13.293 22.125 13.5 22.125C13.707 22.125 13.875 22.2934 13.875 22.5C13.875 22.7066 13.707 22.875 13.5 22.875ZM16.5 22.875C16.293 22.875 16.125 22.7066 16.125 22.5C16.125 22.2934 16.293 22.125 16.5 22.125C16.707 22.125 16.875 22.2934 16.875 22.5C16.875 22.7066 16.707 22.875 16.5 22.875ZM22.5 16.125C22.707 16.125 22.875 16.2934 22.875 16.5C22.875 16.7066 22.707 16.875 22.5 16.875C22.293 16.875 22.125 16.7066 22.125 16.5C22.125 16.2934 22.293 16.125 22.5 16.125ZM21 13.125C21.207 13.125 21.375 13.2934 21.375 13.5C21.375 13.7066 21.207 13.875 21 13.875C20.793 13.875 20.625 13.7066 20.625 13.5C20.625 13.2934 20.793 13.125 21 13.125ZM11.625 14.625C11.625 14.4184 11.793 14.25 12 14.25C12.207 14.25 12.375 14.4184 12.375 14.625C12.375 14.8316 12.207 15 12 15C11.793 15 11.625 14.8316 11.625 14.625ZM15.375 16.5H12.375V15.681C12.8104 15.5258 13.125 15.1132 13.125 14.625C13.125 14.0048 12.6202 13.5 12 13.5C11.3798 13.5 10.875 14.0048 10.875 14.625C10.875 15.1132 11.1896 15.5258 11.625 15.681V16.5H8.625V12.75H15.375V16.5ZM13.125 12H10.875V10.125C10.875 9.50475 11.3798 9 12 9C12.6202 9 13.125 9.50475 13.125 10.125V12ZM13.875 12V10.125C13.875 9.09113 13.0339 8.25 12 8.25C10.9661 8.25 10.125 9.09113 10.125 10.125V12H9.375V10.125C9.375 8.6775 10.5529 7.5 12 7.5C13.4471 7.5 14.625 8.6775 14.625 10.125V12H13.875Z" fill="#F1F1F1"/>
</svg>
