<svg width="24" height="24" viewBox="0 0 24 24" fill="none" xmlns="http://www.w3.org/2000/svg">
<path d="M3.89355 11.3608H1.35553C0.711548 11.3608 0.1875 11.8848 0.1875 12.5288V22.832C0.1875 23.476 0.711365 24 1.35553 24H3.89355C4.53754 24 5.0614 23.476 5.0614 22.832V12.5288C5.0614 11.8848 4.53754 11.3608 3.89355 11.3608ZM4.35828 22.832C4.35828 23.0883 4.14972 23.2969 3.89337 23.2969H1.35553C1.09918 23.2969 0.890625 23.0883 0.890625 22.832V12.5288C0.890625 12.2725 1.09918 12.0639 1.35553 12.0639H3.89355C4.14972 12.0639 4.35828 12.2725 4.35828 12.5288V22.832Z" fill="#F1F1F1"/>
<path d="M6.80273 12.4244C6.60846 12.4244 6.45117 12.5817 6.45117 12.776V22.832C6.45117 23.476 6.97504 24 7.61902 24H10.157C10.8012 24 11.3251 23.476 11.3251 22.832V8.74182C11.3251 8.09784 10.8012 7.57379 10.157 7.57379H7.61902C6.97504 7.57379 6.45117 8.09784 6.45117 8.74182V11.3698C6.45117 11.5638 6.60846 11.7213 6.80273 11.7213C6.99683 11.7213 7.1543 11.5638 7.1543 11.3698V8.74182C7.1543 8.48547 7.36285 8.27692 7.61902 8.27692H10.157C10.4134 8.27692 10.6219 8.48547 10.6219 8.74182V22.832C10.6219 23.0883 10.4134 23.2969 10.157 23.2969H7.61902C7.36285 23.2969 7.1543 23.0883 7.1543 22.832V12.776C7.1543 12.5817 6.99683 12.4244 6.80273 12.4244Z" fill="#F1F1F1"/>
<path d="M16.4207 9.92267H13.8827C13.2387 9.92267 12.7147 10.4467 12.7147 11.0907V22.832C12.7147 23.476 13.2387 24 13.8827 24H16.4207C17.0647 24 17.5887 23.476 17.5887 22.832V11.0907C17.5887 10.4467 17.0647 9.92267 16.4207 9.92267ZM16.8856 22.832C16.8856 23.0883 16.6771 23.2969 16.4207 23.2969H13.8827C13.6263 23.2969 13.4178 23.0883 13.4178 22.832V11.0907C13.4178 10.8344 13.6263 10.6258 13.8827 10.6258H16.4207C16.6771 10.6258 16.8856 10.8344 16.8856 11.0907V22.832Z" fill="#F1F1F1"/>
<path d="M20.1464 24H22.6844C23.3284 24 23.8524 23.476 23.8524 22.832V7.25574C23.8524 6.61176 23.3284 6.08789 22.6844 6.08789H20.1464C19.5024 6.08789 18.9783 6.61176 18.9783 7.25574V18.5885C18.9783 18.7826 19.1358 18.9401 19.3299 18.9401C19.5242 18.9401 19.6815 18.7826 19.6815 18.5885V7.25574C19.6815 6.99957 19.89 6.79102 20.1464 6.79102H22.6844C22.9407 6.79102 23.1493 6.99957 23.1493 7.25574V22.832C23.1493 23.0883 22.9407 23.2969 22.6844 23.2969H20.1464C19.89 23.2969 19.6815 23.0883 19.6815 22.832V19.9948C19.6815 19.8005 19.5242 19.6432 19.3299 19.6432C19.1358 19.6432 18.9783 19.8005 18.9783 19.9948V22.832C18.9783 23.476 19.5024 24 20.1464 24Z" fill="#F1F1F1"/>
<path d="M21.4153 4.7298C22.7194 4.7298 23.7803 3.66888 23.7803 2.36481C23.7803 1.06091 22.7194 0 21.4153 0C20.1114 0 19.0505 1.06091 19.0505 2.36481C19.0505 2.38202 19.0514 2.39905 19.0518 2.41608L16.2724 4.11786C15.9386 3.9375 15.557 3.83478 15.1518 3.83478C14.5854 3.83478 14.0654 4.0351 13.6578 4.36816L11.2189 3.45355C11.0294 2.33807 10.0567 1.4859 8.88812 1.4859C7.58423 1.4859 6.52313 2.54681 6.52313 3.85089C6.52313 3.86371 6.52405 3.87616 6.52423 3.88898L3.75677 5.56219C3.42023 5.37799 3.03442 5.27289 2.62445 5.27289C1.32056 5.27289 0.259644 6.3338 0.259644 7.63788C0.259644 8.94177 1.32056 10.0027 2.62445 10.0027C3.92853 10.0027 4.98944 8.94177 4.98944 7.63788C4.98944 7.62506 4.98871 7.61243 4.98834 7.59979L7.75598 5.92657C8.09235 6.11078 8.47815 6.2157 8.88812 6.2157C9.45428 6.2157 9.97449 6.01556 10.3821 5.6825L12.8209 6.59711C13.0106 7.7124 13.9832 8.56458 15.1518 8.56458C16.4557 8.56458 17.5166 7.50366 17.5166 6.19977C17.5166 6.18256 17.5157 6.16553 17.5153 6.1485L20.2947 4.44672C20.6285 4.62726 21.0101 4.7298 21.4153 4.7298ZM21.4153 0.703125C22.3315 0.703125 23.0771 1.44855 23.0771 2.36481C23.0771 3.28125 22.3317 4.02667 21.4153 4.02667C20.5831 4.02667 19.8668 3.38654 19.7661 2.56183C19.647 1.58826 20.436 0.703125 21.4153 0.703125ZM2.62445 9.29956C1.70819 9.29956 0.962769 8.55414 0.962769 7.63788C0.962769 6.72162 1.70819 5.97601 2.62445 5.97601C3.52478 5.97601 4.28613 6.73755 4.28613 7.63788C4.28613 8.55414 3.54071 9.29956 2.62445 9.29956ZM4.85706 6.85748C4.85522 6.85236 4.85303 6.84723 4.8512 6.8421C4.7428 6.53925 4.57233 6.25854 4.3526 6.02362L6.65552 4.63129C6.65735 4.63623 6.72327 4.8056 6.76044 4.88232C6.86353 5.09491 6.99774 5.29156 7.15997 5.46515L4.85706 6.85748ZM7.40314 4.58075C6.85309 3.4975 7.68695 2.18921 8.88812 2.18921C9.78259 2.18921 10.5498 2.95496 10.5498 3.85089C10.5498 4.75525 9.79248 5.51276 8.88812 5.51276C8.2511 5.51257 7.68018 5.12622 7.40314 4.58075ZM11.2264 4.2074L13.1552 4.93066C12.9787 5.20734 12.8624 5.51697 12.8134 5.84326L10.8845 5.12C11.0612 4.84332 11.1775 4.53369 11.2264 4.2074ZM15.1518 7.86145C14.2559 7.86145 13.4899 7.09607 13.4899 6.19977C13.4899 5.29541 14.2474 4.5379 15.1518 4.5379C16.0497 4.5379 16.8135 5.30219 16.8135 6.19977C16.8135 7.11603 16.0681 7.86145 15.1518 7.86145ZM17.3798 5.40692C17.3789 5.40436 17.3778 5.40179 17.3769 5.39923C17.2657 5.09418 17.094 4.81183 16.871 4.57581L19.1873 3.15765C19.2063 3.21094 19.2279 3.26349 19.2506 3.31549C19.3594 3.56323 19.5095 3.79138 19.6961 3.98877L17.3798 5.40692Z" fill="#F1F1F1"/>
</svg>
