<svg width="24" height="24" viewBox="0 0 24 24" fill="none" xmlns="http://www.w3.org/2000/svg">
<path d="M23.6 0.4H15.6C15.3791 0.4 15.2 0.579102 15.2 0.8V2H13.1264C13.0055 1.66113 12.7389 1.39453 12.4 1.27363V0.4C12.4 0.179102 12.2209 0 12 0C11.7791 0 11.6 0.179102 11.6 0.4V1.27363C11.1207 1.44063 10.7996 1.89258 10.7996 2.4C10.7996 2.90742 11.1207 3.35938 11.6 3.52637V7.67363C11.2611 7.79453 10.9945 8.06113 10.8736 8.4H8.8V5.6C8.8 5.3791 8.6209 5.2 8.4 5.2H0.4C0.179102 5.2 0 5.3791 0 5.6V12C0 12.2209 0.179102 12.4 0.4 12.4H8.4C8.6209 12.4 8.8 12.2209 8.8 12V9.2H10.8736C10.9945 9.53887 11.2611 9.80547 11.6 9.92637V14.0736C11.1207 14.2406 10.7996 14.6926 10.7996 15.2C10.7996 15.7074 11.1207 16.1594 11.6 16.3264V20.4736C11.2611 20.5945 10.9945 20.8611 10.8736 21.2H8.8V16.8C8.8 16.5791 8.6209 16.4 8.4 16.4H0.4C0.179102 16.4 0 16.5791 0 16.8V23.2C0 23.4209 0.179102 23.6 0.4 23.6H8.4C8.6209 23.6 8.8 23.4209 8.8 23.2V22H10.8736C10.9945 22.3389 11.2611 22.6055 11.6 22.7264V23.6C11.6 23.8209 11.7791 24 12 24C12.2209 24 12.4 23.8209 12.4 23.6V22.7264C12.8793 22.5594 13.2004 22.1074 13.2004 21.6C13.2004 21.0926 12.8793 20.6406 12.4 20.4736V16.3264C12.7389 16.2055 13.0055 15.9389 13.1264 15.6H15.2V18.4C15.2 18.6209 15.3791 18.8 15.6 18.8H23.6C23.8209 18.8 24 18.6209 24 18.4V12C24 11.7791 23.8209 11.6 23.6 11.6H15.6C15.3791 11.6 15.2 11.7791 15.2 12V14.8H13.1264C13.0055 14.4611 12.7389 14.1945 12.4 14.0736V9.92637C12.8793 9.75938 13.2004 9.30742 13.2004 8.8C13.2004 8.29258 12.8793 7.84063 12.4 7.67363V3.52637C12.7389 3.40547 13.0055 3.13887 13.1264 2.8H15.2V7.2C15.2 7.4209 15.3791 7.6 15.6 7.6H23.6C23.8209 7.6 24 7.4209 24 7.2V0.8C24 0.579102 23.8209 0.4 23.6 0.4ZM8 11.6H0.8V6H8V11.6ZM8 22.8H0.8V17.2H8V22.8ZM16 12.4H23.2V18H16V12.4ZM12 22C11.7791 22 11.6 21.8209 11.6 21.6C11.6 21.3791 11.7791 21.2 12 21.2C12.2209 21.2 12.4 21.3791 12.4 21.6C12.4 21.8209 12.2209 22 12 22ZM12 15.6C11.7791 15.6 11.6 15.4209 11.6 15.2C11.6 14.9791 11.7791 14.8 12 14.8C12.2209 14.8 12.4 14.9791 12.4 15.2C12.4 15.4209 12.2209 15.6 12 15.6ZM12 9.2C11.7791 9.2 11.6 9.0209 11.6 8.8C11.6 8.5791 11.7791 8.4 12 8.4C12.2209 8.4 12.4 8.5791 12.4 8.8C12.4 9.0209 12.2209 9.2 12 9.2ZM12 2.8C11.7791 2.8 11.6 2.6209 11.6 2.4C11.6 2.1791 11.7791 2 12 2C12.2209 2 12.4 2.1791 12.4 2.4C12.4 2.6209 12.2209 2.8 12 2.8ZM23.2 6.8H16V1.2H23.2V6.8Z" fill="#F1F1F1"/>
</svg>
