<svg width="24" height="24" viewBox="0 0 24 24" fill="none" xmlns="http://www.w3.org/2000/svg">
<path d="M13.7165 11.4781C13.9001 11.2472 14.0007 10.9612 14.002 10.6663V10.5351C13.9974 9.85372 13.4804 9.28513 12.8026 9.21593V8.80158C12.8026 8.58077 12.6236 8.40179 12.4028 8.40179C12.182 8.40179 12.003 8.58077 12.003 8.80158V9.20136H11.2034V8.80158C11.2034 8.58077 11.0244 8.40179 10.8036 8.40179C10.5828 8.40179 10.4038 8.58077 10.4038 8.80158V9.20136H10.004C9.78324 9.20136 9.60426 9.38034 9.60426 9.60115C9.60426 9.82196 9.78328 10.0009 10.004 10.0009H12.6574C12.9553 9.99822 13.1991 10.2372 13.2024 10.535V10.6662C13.1991 10.9641 12.9552 11.2031 12.6574 11.2003H11.2035C11.2035 10.9795 11.0245 10.8005 10.8037 10.8005C10.5829 10.8005 10.4039 10.9795 10.4039 11.2003V12.3997C10.4039 12.6205 10.5829 12.7995 10.8037 12.7995C11.0245 12.7995 11.2035 12.6205 11.2035 12.3997V11.9999H12.8195C13.246 11.9948 13.5962 12.3359 13.6023 12.7625V12.8366C13.5962 13.2632 13.246 13.6042 12.8195 13.5991H10.004C9.78324 13.5991 9.60426 13.7781 9.60426 13.9989C9.60426 14.2197 9.78328 14.3987 10.004 14.3987H10.4038V14.7985C10.4038 15.0193 10.5828 15.1983 10.8036 15.1983C11.0244 15.1983 11.2034 15.0193 11.2034 14.7985V14.3987H12.003V14.7985C12.003 15.0193 12.182 15.1983 12.4028 15.1983C12.6236 15.1983 12.8026 15.0193 12.8026 14.7985V14.3987H12.8194C13.6873 14.4033 14.3952 13.7045 14.4018 12.8366V12.7624C14.4002 12.2473 14.1436 11.7663 13.7165 11.4781Z" fill="#F1F1F1"/>
<path d="M11.7191 7.48628C11.7958 7.55928 11.8971 7.60065 12.003 7.60224C12.0284 7.60149 12.0537 7.59882 12.0787 7.59423C12.1052 7.59039 12.131 7.58228 12.1549 7.57024C12.1794 7.56223 12.2024 7.55 12.2228 7.53412C12.2466 7.51828 12.2669 7.50231 12.2868 7.48628C12.3221 7.4474 12.3505 7.40275 12.3708 7.3543C12.3913 7.30623 12.4021 7.25465 12.4028 7.20241C12.402 7.09643 12.3604 6.99481 12.2868 6.91854C12.2669 6.90256 12.2466 6.88654 12.2228 6.87051C12.2024 6.85463 12.1794 6.8424 12.1549 6.83439C12.131 6.8223 12.1052 6.81424 12.0787 6.81059C11.9485 6.78632 11.8145 6.82652 11.7192 6.91854C11.7019 6.93751 11.6859 6.95752 11.6711 6.97846C11.656 7.00067 11.6439 7.02484 11.6352 7.05028C11.6237 7.07301 11.6155 7.09727 11.611 7.12229C11.6064 7.14876 11.6038 7.17552 11.6031 7.20236C11.6038 7.2546 11.6147 7.30619 11.6351 7.35426C11.6554 7.40275 11.6838 7.44735 11.7191 7.48628Z" fill="#F1F1F1"/>
<path d="M12.2868 16.5138C12.2669 16.4978 12.2466 16.4818 12.2228 16.4657C12.2024 16.4499 12.1794 16.4376 12.1548 16.4296C12.1309 16.4175 12.1052 16.4095 12.0787 16.4058C11.9483 16.3795 11.8134 16.42 11.7191 16.5138C11.6838 16.5526 11.6555 16.5972 11.6352 16.6456C11.6146 16.6937 11.6038 16.7454 11.6032 16.7976C11.6038 16.8244 11.6064 16.8511 11.611 16.8775C11.6155 16.9025 11.6237 16.9268 11.6352 16.9495C11.6438 16.975 11.6559 16.9992 11.6711 17.0215C11.686 17.0424 11.702 17.0624 11.7192 17.0815C11.7958 17.1545 11.8972 17.1958 12.003 17.1974C12.0284 17.1967 12.0538 17.194 12.0788 17.1894C12.1053 17.1856 12.131 17.1775 12.1549 17.1654C12.1795 17.1574 12.2025 17.1451 12.2229 17.1293C12.2467 17.1134 12.267 17.0974 12.2869 17.0814C12.3605 17.0051 12.402 16.9036 12.4029 16.7976C12.4022 16.7453 12.3914 16.6936 12.3709 16.6455C12.3504 16.5972 12.3221 16.5526 12.2868 16.5138Z" fill="#F1F1F1"/>
<path d="M10.3636 7.8899C10.4688 7.89098 10.5699 7.84909 10.6435 7.77394C10.6619 7.75497 10.6793 7.73496 10.6954 7.71402C10.7075 7.68999 10.7197 7.67007 10.7314 7.64609C10.7396 7.62205 10.7473 7.59417 10.7556 7.57014C10.7601 7.54367 10.7627 7.51692 10.7634 7.49012C10.7631 7.38447 10.7198 7.2835 10.6436 7.21037C10.6265 7.18999 10.6063 7.17242 10.5838 7.15827C10.5635 7.14637 10.5397 7.13424 10.5159 7.12234C10.4917 7.11432 10.4636 7.10636 10.4398 7.0983C10.3086 7.07352 10.1737 7.11549 10.0798 7.21037C9.96535 7.3244 9.93124 7.4964 9.9935 7.64548C10.0557 7.79456 10.202 7.89116 10.3636 7.8899Z" fill="#F1F1F1"/>
<path d="M13.9259 16.2259C13.9078 16.2065 13.8878 16.1892 13.8661 16.174C13.8419 16.1619 13.822 16.1499 13.7982 16.1378C13.7733 16.1294 13.7479 16.1228 13.7221 16.1179C13.6708 16.106 13.6175 16.106 13.5663 16.1179C13.5405 16.1227 13.515 16.1294 13.4902 16.1378C13.4664 16.1499 13.4421 16.1619 13.4222 16.174C13.3996 16.1881 13.3794 16.2056 13.3621 16.2259C13.3236 16.2614 13.2936 16.3051 13.2743 16.3537C13.2542 16.4034 13.2433 16.4562 13.2423 16.5097C13.2428 16.6154 13.286 16.7163 13.3621 16.7897C13.3794 16.8099 13.3997 16.8274 13.4222 16.8416C13.4421 16.8535 13.4664 16.8656 13.4902 16.8775C13.5149 16.8873 13.5403 16.8954 13.5663 16.9015C13.5913 16.9062 13.6166 16.9089 13.642 16.9095C13.6689 16.9089 13.6956 16.9062 13.7221 16.9015C13.748 16.8954 13.7734 16.8873 13.7982 16.8775C13.822 16.8656 13.8419 16.8535 13.8661 16.8416C13.8878 16.8264 13.9078 16.809 13.9259 16.7897C14.0011 16.716 14.0429 16.6149 14.0418 16.5097C14.0423 16.4564 14.0329 16.4035 14.0141 16.3537C13.993 16.3059 13.9631 16.2625 13.9259 16.2259Z" fill="#F1F1F1"/>
<path d="M8.54844 8.47777C8.56053 8.5018 8.57266 8.52579 8.58475 8.5457C8.59988 8.56871 8.61726 8.59017 8.63666 8.60975C8.67344 8.64569 8.71678 8.67417 8.76433 8.69371C8.81376 8.71465 8.86684 8.72552 8.92049 8.72571C9.02506 8.7236 9.12499 8.68218 9.20043 8.60975C9.21982 8.59021 9.2372 8.56875 9.25234 8.5457C9.26405 8.52579 9.27614 8.5018 9.28827 8.47777C9.2961 8.45373 9.30425 8.42974 9.31207 8.40182C9.3169 8.3768 9.31966 8.35136 9.32027 8.32587C9.31966 8.29903 9.31695 8.27223 9.31207 8.24585C9.30425 8.22181 9.29605 8.19389 9.28827 8.16985C9.27618 8.14582 9.26405 8.12591 9.25234 8.10192C9.23617 8.08093 9.21884 8.06088 9.20043 8.04181C9.16266 8.00592 9.11942 7.97626 9.07238 7.95396C8.97362 7.91395 8.86309 7.91395 8.76433 7.95396C8.71739 7.97626 8.67428 8.00592 8.63666 8.04181C8.61825 8.06088 8.60091 8.08093 8.58475 8.10192C8.57266 8.12595 8.56053 8.14587 8.54844 8.16985C8.54062 8.19389 8.53246 8.22177 8.52464 8.2458C8.52009 8.27227 8.51747 8.29903 8.51682 8.32583C8.51747 8.35131 8.52009 8.37671 8.52459 8.40177C8.53242 8.42974 8.54062 8.45373 8.54844 8.47777Z" fill="#F1F1F1"/>
<path d="M15.3092 15.3423C15.2874 15.3286 15.2648 15.3166 15.2412 15.3063C15.2166 15.2965 15.1913 15.2884 15.1655 15.2823C15.0479 15.2591 14.9261 15.2895 14.8333 15.3653C14.7405 15.441 14.6864 15.5543 14.6856 15.6741C14.6866 15.7276 14.6975 15.7804 14.7176 15.8299C14.7369 15.8786 14.7669 15.9224 14.8055 15.9579C14.8791 16.033 14.9802 16.0749 15.0854 16.0739C15.1123 16.0752 15.1393 16.0725 15.1654 16.0659C15.1911 16.061 15.2164 16.0543 15.2412 16.0458C15.2648 16.0341 15.2874 16.0208 15.3091 16.006C15.331 15.9924 15.3512 15.9763 15.3692 15.9579C15.4065 15.9214 15.4363 15.8778 15.4571 15.8299C15.476 15.7801 15.4856 15.7273 15.4852 15.6741C15.4854 15.5679 15.4438 15.4659 15.3692 15.3902C15.3494 15.3743 15.3291 15.3583 15.3092 15.3423Z" fill="#F1F1F1"/>
<path d="M7.56492 9.31732C7.49038 9.39299 7.44873 9.49498 7.44896 9.6012C7.44826 9.65315 7.45782 9.70478 7.47708 9.75309C7.49877 9.80167 7.52847 9.84628 7.56492 9.88507C7.6412 9.95863 7.74281 10.0001 7.84879 10.001C8.01033 10.0004 8.15562 9.90255 8.21695 9.75309C8.23733 9.70502 8.24806 9.65344 8.24853 9.60124C8.2475 9.49456 8.20439 9.39257 8.12868 9.31737C7.9699 9.16936 7.7237 9.16936 7.56492 9.31732Z" fill="#F1F1F1"/>
<path d="M16.4406 14.1149C16.3463 14.0211 16.2114 13.9807 16.081 14.007C16.0545 14.0106 16.0287 14.0186 16.0049 14.0308C15.9803 14.0388 15.9573 14.051 15.9369 14.0669C15.9145 14.0796 15.8942 14.0958 15.8768 14.1149C15.8014 14.1901 15.7591 14.2922 15.7591 14.3987C15.7591 14.5052 15.8014 14.6074 15.8768 14.6826C15.8942 14.7016 15.9145 14.7177 15.9369 14.7304C15.9573 14.7463 15.9803 14.7585 16.0049 14.7665C16.0288 14.7786 16.0545 14.7867 16.081 14.7905C16.106 14.7951 16.1313 14.7978 16.1568 14.7986C16.2628 14.7978 16.3644 14.7563 16.4406 14.6826C16.4759 14.6437 16.5043 14.5991 16.5246 14.5506C16.5673 14.4538 16.5673 14.3435 16.5246 14.2467C16.5043 14.1983 16.4759 14.1537 16.4406 14.1149Z" fill="#F1F1F1"/>
<path d="M7.2772 11.5681C7.38411 11.5679 7.48639 11.5246 7.56107 11.4481C7.63458 11.3734 7.67614 11.2731 7.67703 11.1684C7.67853 11.1146 7.66757 11.0612 7.64503 11.0124C7.62568 10.9647 7.59715 10.9213 7.56107 10.8845C7.40229 10.7366 7.15609 10.7366 6.9973 10.8845C6.95879 10.92 6.92876 10.9637 6.90946 11.0124C6.88894 11.0619 6.87807 11.1148 6.87746 11.1684C6.88275 11.3869 7.05863 11.5628 7.2772 11.5681Z" fill="#F1F1F1"/>
<path d="M17.0965 12.6796C17.0884 12.655 17.0761 12.632 17.0602 12.6116C17.0461 12.5891 17.0286 12.5689 17.0083 12.5517C16.9138 12.4581 16.7797 12.4163 16.6487 12.4396C16.6245 12.4476 16.5968 12.4556 16.5726 12.4637C16.5488 12.4758 16.5285 12.4877 16.5047 12.4998C16.4837 12.516 16.4636 12.5333 16.4445 12.5517C16.3695 12.6254 16.3277 12.7263 16.3286 12.8315C16.3272 12.8584 16.33 12.8854 16.3368 12.9115C16.3416 12.9373 16.3483 12.9626 16.3567 12.9874C16.3677 13.0114 16.3812 13.0342 16.3969 13.0554C16.4091 13.0781 16.4252 13.0984 16.4445 13.1155C16.4637 13.1338 16.4838 13.1511 16.5047 13.1674C16.5285 13.1793 16.5488 13.1914 16.5726 13.2033C16.5975 13.2119 16.6229 13.2186 16.6487 13.2234C16.6748 13.2299 16.7016 13.2325 16.7284 13.2313C16.8336 13.2324 16.9347 13.1906 17.0083 13.1155C17.0277 13.0974 17.0451 13.0772 17.0602 13.0554C17.0753 13.0345 17.0875 13.0116 17.0965 12.9874C17.108 12.9634 17.116 12.9378 17.1203 12.9115C17.1249 12.885 17.1275 12.8583 17.1282 12.8315C17.1275 12.806 17.1249 12.7806 17.1203 12.7555C17.116 12.7292 17.108 12.7037 17.0965 12.6796Z" fill="#F1F1F1"/>
<path d="M7.56107 13.1154C7.5971 13.0786 7.62564 13.0351 7.64503 12.9874C7.66757 12.9386 7.67853 12.8851 7.67703 12.8314C7.67614 12.7266 7.63454 12.6263 7.56107 12.5517C7.40304 12.4017 7.15529 12.4017 6.9973 12.5517C6.92122 12.6249 6.87802 12.7258 6.87746 12.8314C6.87807 12.885 6.88894 12.9379 6.90946 12.9874C6.92881 13.0361 6.95884 13.0798 6.9973 13.1154C7.07105 13.1904 7.17206 13.2322 7.27724 13.2312C7.30418 13.2325 7.33112 13.2298 7.35727 13.2234C7.38168 13.2185 7.40571 13.2117 7.42909 13.2033C7.45331 13.1914 7.47711 13.1792 7.50134 13.1673C7.52223 13.1512 7.54215 13.1338 7.56107 13.1154Z" fill="#F1F1F1"/>
<path d="M16.4445 10.8846C16.3693 10.9598 16.3275 11.0621 16.3285 11.1685C16.3271 11.194 16.33 11.2197 16.3367 11.2444C16.341 11.2703 16.3477 11.2957 16.3566 11.3203C16.3676 11.3443 16.3811 11.3671 16.3968 11.3883C16.408 11.4116 16.4243 11.432 16.4445 11.4482C16.4636 11.4666 16.4836 11.484 16.5046 11.5003C16.5284 11.5122 16.5487 11.5243 16.5725 11.5362C16.5967 11.5442 16.6244 11.5522 16.6486 11.5603C16.675 11.5649 16.7016 11.5675 16.7283 11.5683C16.834 11.568 16.9351 11.5246 17.0082 11.4482C17.0285 11.4311 17.046 11.4109 17.0601 11.3883C17.076 11.3679 17.0883 11.3449 17.0964 11.3204C17.1084 11.2965 17.1165 11.2709 17.1202 11.2444C17.1248 11.2194 17.1274 11.194 17.1281 11.1685C17.1274 11.1417 17.1248 11.1149 17.1202 11.0885C17.1159 11.0622 17.1079 11.0366 17.0964 11.0125C17.0874 10.9884 17.0752 10.9655 17.0601 10.9446C17.045 10.9229 17.0276 10.9028 17.0082 10.8847C16.9139 10.7909 16.779 10.7504 16.6486 10.7767C16.6228 10.7815 16.5973 10.7881 16.5725 10.7966C16.5487 10.8087 16.5284 10.8206 16.5046 10.8326C16.4836 10.8487 16.4636 10.8661 16.4445 10.8846Z" fill="#F1F1F1"/>
<path d="M7.56495 14.1149C7.41034 14.2726 7.41034 14.5249 7.56495 14.6826C7.64127 14.7562 7.74284 14.7976 7.84882 14.7986C8.01107 14.799 8.15743 14.7011 8.2189 14.551C8.28037 14.4008 8.24471 14.2284 8.12876 14.1149C7.96993 13.9669 7.72373 13.9669 7.56495 14.1149Z" fill="#F1F1F1"/>
<path d="M16.081 9.20939C16.0545 9.213 16.0287 9.22106 16.0048 9.23319C15.9803 9.24121 15.9573 9.25343 15.9369 9.26932C15.9154 9.28337 15.8953 9.29944 15.8768 9.31734C15.8583 9.33627 15.841 9.35632 15.8249 9.37726C15.8099 9.39956 15.7978 9.42369 15.789 9.44909C15.7791 9.47242 15.7712 9.4965 15.7652 9.52114C15.7605 9.54757 15.7578 9.57432 15.757 9.60117C15.7582 9.70785 15.8012 9.80975 15.8768 9.88504C15.8952 9.90289 15.9154 9.91892 15.9369 9.93288C15.9573 9.94876 15.9803 9.96099 16.0048 9.969C16.0287 9.98113 16.0545 9.98924 16.081 9.99304C16.106 9.99763 16.1313 10.0003 16.1567 10.001C16.1836 10.0003 16.2103 9.99763 16.2368 9.99304C16.2617 9.98858 16.286 9.98048 16.3086 9.969C16.3342 9.96024 16.3584 9.94806 16.3808 9.93288C16.4007 9.91704 16.4207 9.90106 16.4406 9.88504C16.4577 9.86602 16.4737 9.84597 16.4886 9.82512C16.5038 9.80286 16.5159 9.77864 16.5245 9.75306C16.536 9.73034 16.5442 9.70607 16.5487 9.681C16.5591 9.6282 16.5591 9.5739 16.5487 9.52114C16.5442 9.49608 16.5361 9.47181 16.5245 9.44909C16.5159 9.42365 16.5038 9.39947 16.4886 9.37726C16.4738 9.35632 16.4578 9.33631 16.4406 9.31734C16.3452 9.22532 16.2112 9.18512 16.081 9.20939Z" fill="#F1F1F1"/>
<path d="M9.28833 15.5223C9.27625 15.4982 9.26411 15.4742 9.2524 15.4541C9.2383 15.4316 9.22077 15.4114 9.20049 15.3942C9.16488 15.3558 9.12112 15.3257 9.07244 15.3064C8.97368 15.2664 8.86316 15.2664 8.76439 15.3064C8.71581 15.3257 8.67214 15.3558 8.63672 15.3942C8.61644 15.4114 8.59891 15.4316 8.58481 15.4541C8.57272 15.4742 8.56059 15.4983 8.5485 15.5223C8.54068 15.5461 8.53252 15.5701 8.5247 15.5982C8.52016 15.6233 8.51758 15.6487 8.51688 15.6742C8.51716 15.781 8.56035 15.8833 8.63672 15.958C8.67327 15.9952 8.7166 16.025 8.76439 16.0459C8.81406 16.0656 8.86714 16.0752 8.92055 16.074C8.97255 16.0748 9.02418 16.0652 9.07244 16.0459C9.12032 16.025 9.1638 15.9952 9.20049 15.958C9.27671 15.8832 9.31986 15.781 9.32033 15.6742C9.31972 15.6487 9.31696 15.6233 9.31213 15.5982C9.30431 15.5701 9.29611 15.5461 9.28833 15.5223Z" fill="#F1F1F1"/>
<path d="M14.8054 8.60561C14.8786 8.68184 14.9796 8.72518 15.0853 8.72565C15.1122 8.7249 15.1389 8.72223 15.1654 8.71763C15.1916 8.71323 15.2171 8.70512 15.2411 8.6936C15.2653 8.68484 15.2882 8.67266 15.3091 8.65748C15.3301 8.64136 15.3502 8.62402 15.3692 8.60556C15.4064 8.56902 15.4363 8.52559 15.457 8.47771C15.5155 8.32773 15.4812 8.15743 15.3692 8.0418C15.3512 8.02348 15.331 8.00741 15.3091 7.99396C15.2874 7.97902 15.2647 7.96566 15.2411 7.95395C15.2164 7.94542 15.1911 7.93872 15.1654 7.93385C15.0204 7.9027 14.8702 7.95503 14.7759 8.06949C14.6817 8.18395 14.6592 8.34141 14.7176 8.47771C14.7369 8.52639 14.7669 8.5701 14.8054 8.60561Z" fill="#F1F1F1"/>
<path d="M10.6435 16.2258C10.4847 16.0779 10.2385 16.0779 10.0797 16.2258C10.0425 16.2624 10.0127 16.3058 9.99186 16.3537C9.97261 16.4034 9.96305 16.4563 9.96375 16.5097C9.96305 16.5616 9.97261 16.6133 9.99186 16.6616C10.0127 16.7095 10.0425 16.753 10.0797 16.7896C10.1535 16.8662 10.2553 16.9094 10.3616 16.9094C10.468 16.9094 10.5697 16.8662 10.6435 16.7896C10.6808 16.753 10.7106 16.7095 10.7314 16.6616C10.7521 16.6136 10.7629 16.5619 10.7634 16.5097C10.7625 16.4561 10.7516 16.4032 10.7314 16.3537C10.7106 16.3058 10.6807 16.2624 10.6435 16.2258Z" fill="#F1F1F1"/>
<path d="M13.4222 7.82611C13.4421 7.83801 13.4664 7.84991 13.4902 7.86204C13.515 7.87057 13.5404 7.87722 13.5663 7.88195C13.591 7.88856 13.6165 7.89128 13.642 7.88997C13.669 7.89128 13.696 7.88861 13.7221 7.88195C13.7479 7.87717 13.7733 7.87052 13.7982 7.86204C13.822 7.84995 13.8419 7.83801 13.8661 7.82611C13.8879 7.81093 13.9079 7.79345 13.9259 7.77401C14.0805 7.61794 14.0805 7.36649 13.9259 7.21042C13.9079 7.19098 13.8879 7.17351 13.8661 7.15833C13.8443 7.14493 13.8216 7.13293 13.7982 7.12239C13.7734 7.11269 13.748 7.10463 13.7221 7.09835C13.6704 7.09034 13.6179 7.09034 13.5663 7.09835C13.5404 7.10459 13.5149 7.1126 13.4902 7.12239C13.4664 7.13429 13.4421 7.14642 13.4222 7.15833C13.3996 7.17247 13.3793 7.19009 13.3621 7.21042C13.2855 7.28417 13.2423 7.38589 13.2423 7.49224C13.2423 7.59855 13.2856 7.70031 13.3621 7.77405C13.3793 7.79439 13.3996 7.81196 13.4222 7.82611Z" fill="#F1F1F1"/>
<path d="M21.998 12.7996C22.4394 12.7991 22.7971 12.4414 22.7976 12V10.7438C23.5771 10.5439 24.0858 9.79484 23.9842 8.99653C23.8826 8.19823 23.2025 7.6005 22.3978 7.60218C21.5931 7.6005 20.913 8.19828 20.8114 8.99653C20.7098 9.79484 21.2185 10.5439 21.998 10.7438V12H18.7996C18.8045 10.1964 18.0876 8.46594 16.8088 7.1942C16.5574 6.94635 16.2874 6.71824 16.001 6.5119V6.003H21.5982C22.0396 6.00248 22.3973 5.64482 22.3978 5.20338V4.34703C23.1776 4.14571 23.6859 3.39599 23.5845 2.59712C23.483 1.79821 22.8033 1.1994 21.998 1.1994C21.1926 1.1994 20.513 1.79821 20.4115 2.59708C20.3101 3.39594 20.8184 4.14566 21.5982 4.34698V5.20334H16.001C15.5609 5.20394 15.2039 5.5596 15.2017 5.99963C14.3363 5.54039 13.3811 5.27525 12.4028 5.22283V4.40381H14.0019C14.4433 4.4033 14.8011 4.04559 14.8016 3.6042V3.14763C15.5813 2.94631 16.0897 2.19659 15.9882 1.39772C15.8867 0.59881 15.2071 0 14.4018 0C13.5965 0 12.9168 0.59881 12.8153 1.39768C12.7139 2.19654 13.2222 2.94626 14.002 3.14758V3.60415H12.4028C11.9614 3.60467 11.6037 3.96238 11.6032 4.40377V5.22283C11.0609 5.2515 10.524 5.34506 10.004 5.50159V2.4048C10.0035 1.96341 9.64578 1.6057 9.20439 1.60518H5.14961C4.94829 0.825431 4.19857 0.317045 3.3997 0.418525C2.60079 0.520006 2.00198 1.19968 2.00198 2.00501C2.00198 2.81034 2.60079 3.48997 3.39966 3.59145C4.19852 3.69293 4.94824 3.18455 5.14956 2.4048H9.20434V5.8103C7.42627 6.61076 6.07844 8.13742 5.50456 10.001H2.00798V7.94523C2.78773 7.74391 3.29611 6.99419 3.19463 6.19532C3.09315 5.39641 2.41348 4.7976 1.60814 4.7976C0.802857 4.7976 0.12318 5.39641 0.0216998 6.19528C-0.0797809 6.99414 0.428606 7.74386 1.20836 7.94518V10.0009C1.20887 10.4423 1.56659 10.8 2.00798 10.8006H5.31668C5.24481 11.1964 5.20789 11.5977 5.20635 12H4.40678C3.96539 12.0005 3.60768 12.3582 3.60716 12.7996V18.3968H3.15059C2.94927 17.617 2.19955 17.1087 1.40068 17.2101C0.601817 17.3116 0.00300598 17.9913 0.00300598 18.7966C0.00300598 19.6019 0.601817 20.2815 1.40068 20.383C2.19955 20.4845 2.94927 19.9761 3.15059 19.1964H3.60716C4.04855 19.1958 4.40626 18.8381 4.40678 18.3967V12.7996H5.25765C5.53267 15.1658 7.03169 17.213 9.20439 18.1897V21.995H6.7488C6.54748 21.2152 5.79776 20.7069 4.99889 20.8083C4.20002 20.9098 3.60121 21.5895 3.60121 22.3948C3.60121 23.2001 4.20002 23.8797 4.99889 23.9812C5.79776 24.0827 6.54748 23.5743 6.7488 22.7946H9.20439C9.64578 22.794 10.0035 22.4364 10.004 21.9949V18.4983C10.524 18.6548 11.0609 18.7484 11.6032 18.777V19.5961C11.6037 20.0375 11.9614 20.3952 12.4028 20.3957H15.2014V20.8523C14.4216 21.0536 13.9133 21.8033 14.0147 22.6022C14.1162 23.4011 14.7959 23.9999 15.6012 23.9999C16.4065 23.9999 17.0861 23.4011 17.1876 22.6022C17.2891 21.8033 16.7807 21.0536 16.001 20.8523V20.3957C16.0005 19.9543 15.6427 19.5966 15.2014 19.5961H12.4028V18.777C14.0644 18.6863 15.6337 17.9841 16.8088 16.8057C17.284 16.3316 17.6865 15.79 18.0035 15.1983H21.1984V19.2531C20.4187 19.4544 19.9103 20.2041 20.0117 21.003C20.1132 21.8019 20.7929 22.4007 21.5982 22.4007C22.4035 22.4007 23.0832 21.8019 23.1846 21.003C23.2861 20.2041 22.7777 19.4544 21.998 19.2531V15.1983C21.9975 14.7569 21.6397 14.3992 21.1984 14.3987H18.3584C18.5531 13.8836 18.6841 13.3465 18.7483 12.7995H21.998V12.7996ZM21.5982 9.20142C21.5982 8.75979 21.9562 8.4018 22.3978 8.4018C22.8394 8.4018 23.1974 8.75979 23.1974 9.20142C23.1969 9.6428 22.8392 10.0005 22.3978 10.001C21.9562 10.001 21.5982 9.64299 21.5982 9.20142ZM21.1984 2.80458C21.1984 2.36296 21.5564 2.00497 21.998 2.00497C22.4396 2.00497 22.7976 2.36296 22.7976 2.80458C22.7976 3.24621 22.4396 3.6042 21.998 3.6042C21.5566 3.60368 21.1989 3.24597 21.1984 2.80458ZM13.6022 1.60518C13.6022 1.16356 13.9602 0.805566 14.4018 0.805566C14.8434 0.805566 15.2014 1.16356 15.2014 1.60518C15.2014 2.0468 14.8434 2.4048 14.4018 2.4048C13.9604 2.40428 13.6027 2.04657 13.6022 1.60518ZM3.60716 2.80458C3.16554 2.80458 2.80755 2.44659 2.80755 2.00497C2.80755 1.56334 3.16554 1.20535 3.60716 1.20535C4.04879 1.20535 4.40678 1.56334 4.40678 2.00497C4.40626 2.4464 4.04855 2.80407 3.60716 2.80458ZM1.60814 7.2024C1.16675 7.20188 0.809042 6.84417 0.808526 6.40278C0.808526 5.96116 1.16652 5.60317 1.60814 5.60317C2.04977 5.60317 2.40776 5.96116 2.40776 6.40278C2.40776 6.84441 2.04977 7.2024 1.60814 7.2024ZM1.60814 19.5962C1.16652 19.5962 0.808526 19.2382 0.808526 18.7966C0.808526 18.3549 1.16652 17.997 1.60814 17.997C2.04977 17.997 2.40776 18.3549 2.40776 18.7966C2.40724 19.238 2.04953 19.5957 1.60814 19.5962ZM5.20635 23.1944C4.76473 23.1944 4.40673 22.8364 4.40673 22.3948C4.40673 21.9531 4.76473 21.5952 5.20635 21.5952C5.64797 21.5952 6.00597 21.9531 6.00597 22.3948C6.00545 22.8362 5.64779 23.1939 5.20635 23.1944ZM15.6012 21.5952C16.0426 21.5957 16.4003 21.9534 16.4008 22.3948C16.4008 22.8364 16.0428 23.1944 15.6012 23.1944C15.1596 23.1944 14.8016 22.8364 14.8016 22.3948C14.8016 21.9532 15.1596 21.5952 15.6012 21.5952ZM16.2434 16.2404C14.2204 18.2633 11.0502 18.5754 8.67154 16.986C6.29289 15.3965 5.36822 12.3482 6.46305 9.70507C7.55788 7.06199 10.3673 5.56039 13.1732 6.11853C15.9791 6.67668 17.9999 9.13915 17.9999 12C18.0043 13.5914 17.3718 15.1183 16.2434 16.2404ZM21.5982 19.996C22.0396 19.9965 22.3973 20.3542 22.3978 20.7956C22.3978 21.2373 22.0398 21.5952 21.5982 21.5952C21.1566 21.5952 20.7986 21.2373 20.7986 20.7956C20.7986 20.354 21.1566 19.996 21.5982 19.996Z" fill="#F1F1F1"/>
</svg>
